<?xml version="1.0" encoding="UTF-8" standalone="no"?>
<!-- Created with Inkscape (http://www.inkscape.org/) -->

<svg
   xmlns:dc="http://purl.org/dc/elements/1.1/"
   xmlns:cc="http://creativecommons.org/ns#"
   xmlns:rdf="http://www.w3.org/1999/02/22-rdf-syntax-ns#"
   xmlns:svg="http://www.w3.org/2000/svg"
   xmlns="http://www.w3.org/2000/svg"
   xmlns:sodipodi="http://sodipodi.sourceforge.net/DTD/sodipodi-0.dtd"
   xmlns:inkscape="http://www.inkscape.org/namespaces/inkscape"
   width="45.238434mm"
   height="74.818954mm"
   viewBox="0 0 45.281518 74.818954"
   version="1.1"
   id="svg2115"
   sodipodi:docname="Column.svg"
   inkscape:version="0.92.4 (5da689c313, 2019-01-14)">
  <defs
     id="defs2109" />
  <sodipodi:namedview
     id="base"
     pagecolor="#ffffff"
     bordercolor="#666666"
     borderopacity="1.0"
     inkscape:pageopacity="0.0"
     inkscape:pageshadow="2"
     inkscape:zoom="1"
     inkscape:cx="139.3646"
     inkscape:cy="119.77843"
     inkscape:document-units="mm"
     inkscape:current-layer="g1597"
     showgrid="true"
     inkscape:window-width="1366"
     inkscape:window-height="706"
     inkscape:window-x="0"
     inkscape:window-y="0"
     inkscape:window-maximized="1"
     units="px"
     fit-margin-top="2"
     viewbox-width="210.2"
     fit-margin-left="2"
     fit-margin-right="2"
     fit-margin-bottom="2">
    <inkscape:grid
       type="xygrid"
       id="grid1599"
       originx="-23.842803"
       originy="-905.32097" />
  </sodipodi:namedview>
  <metadata
     id="metadata2112">
    <rdf:RDF>
      <cc:Work
         rdf:about="">
        <dc:format>image/svg+xml</dc:format>
        <dc:type
           rdf:resource="http://purl.org/dc/dcmitype/StillImage" />
        <dc:title></dc:title>
      </cc:Work>
    </rdf:RDF>
  </metadata>
  <g
     inkscape:label="Layer 1"
     inkscape:groupmode="layer"
     id="layer1"
     transform="translate(-23.842805,683.79056)">
    <g
       id="g1597"
       transform="translate(-80.931526,-110.75924)">
      <g
         id="g1609"
         transform="translate(14.209867,-690.03451)">
        <path
           style="fill:#000000;stroke-width:0.26458335"
           d="m 117.31432,189.78397 -0.53858,0.0719 -12.10468,-7.02426 -12.104691,-7.02427 V 152.08187 128.3564 l 7.964541,-4.60116 7.96453,-4.60117 0.56828,-0.0923 0.56827,-0.0923 12.03855,6.97966 12.03854,6.97966 0.0675,23.78223 0.0675,23.78224 -7.99563,4.60938 -7.99564,4.60939 z m -0.73321,-9.90434 0.07,-8.38204 -0.11164,-0.29092 -0.11163,-0.29092 -3.58433,-2.05252 -3.58432,-2.05253 -0.25294,0.0922 -0.25295,0.0922 -7.15612,4.10104 -7.156127,4.10104 0.05487,0.19596 0.05487,0.19596 10.980207,6.33628 10.98021,6.33629 z m 1.36373,8.37033 0.24305,-0.0882 6.89615,-3.96875 6.89615,-3.96875 0.005,-0.16862 0.005,-0.16864 -2.3151,-1.32015 -2.31511,-1.32016 -4.82864,-2.79395 -4.82865,-2.79396 v 8.33969 8.33968 l 0.24306,-0.0882 z m 14.77357,-31.40182 0.0677,-22.08507 -0.0945,-0.0945 -0.0945,-0.0945 -7.45001,4.30125 -7.45,4.30125 0.0685,13.59676 0.0685,13.59676 7.40833,4.28155 7.40833,4.28154 z m -37.836937,16.767 1.256771,-0.70124 6.281946,-3.62086 6.28196,-3.62086 -0.007,-13.62604 -0.007,-13.62604 -6.14252,-3.51155 -6.142533,-3.51154 -1.389062,-0.80977 -1.389063,-0.80978 v 22.26946 22.26946 z m 21.565987,-4.11547 0.20089,0.009 -0.0686,-13.24521 -0.0686,-13.2452 -3.37344,-1.95983 -3.37343,-1.95982 v 13.31574 13.31573 l 3.24114,1.88033 3.24115,1.88033 0.20088,0.009 z m 0.59287,-26.71395 h 0.13229 v -0.13229 -0.13229 h -0.13229 -0.13229 v 0.13229 0.13229 z m 0.2941,-0.86314 0.29409,-0.0629 7.31334,-4.22244 7.31334,-4.22244 -0.46368,-0.25425 -0.46369,-0.25424 -10.68821,-6.17279 -10.6882,-6.1728 h -0.0972 -0.0972 l 0.0698,8.62483 0.0698,8.62482 3.57187,2.08755 3.57188,2.08755 z m -8.2316,-3.89936 h 0.13229 v -0.13229 -0.13229 h -0.13229 -0.13229 v 0.13229 0.13229 z m -0.59532,-1.07147 0.19844,0.0131 v -8.20209 -8.20208 h -0.14812 -0.14813 l -6.99125,4.03489 -6.991246,4.0349 -0.0024,0.13229 -0.0024,0.13229 6.943306,4.02175 6.94331,4.02175 0.19844,0.0131 z m 24.6724,-3.16186 h 0.13229 v -0.13229 -0.13229 h -0.13229 -0.13229 v 0.13229 0.13229 z m -39.952083,-4.7625 h 0.132292 v -0.13229 -0.13229 h -0.132292 -0.132291 v 0.13229 0.13229 z"
           id="path2128"
           inkscape:connector-curvature="0" />
        <path
           style="opacity:1;fill:#ffff00;fill-opacity:1;fill-rule:evenodd;stroke:#302b00;stroke-width:2;stroke-miterlimit:4;stroke-dasharray:none;stroke-opacity:1"
           d="m 473.12391,659.37212 -27.75903,-16.03981 0.25903,-51.09753 0.25903,-51.09752 27.39586,-15.8296 c 15.06772,-8.70628 27.55783,-15.66762 27.75581,-15.46964 0.19798,0.19797 0.24484,37.53309 0.10415,82.96693 l -0.25582,82.60697 z"
           id="path2149"
           inkscape:connector-curvature="0"
           transform="scale(0.26458333)" />
        <path
           style="opacity:1;fill:#ffff00;fill-opacity:1;fill-rule:evenodd;stroke:#302b00;stroke-width:2;stroke-miterlimit:4;stroke-dasharray:none;stroke-opacity:1"
           d="m 429.13294,528.30917 -13.75,-7.99658 V 488.3328 c 0,-17.58888 0.37074,-31.82978 0.82387,-31.64645 4.45623,1.80298 81.91282,47.4911 81.38312,48.0042 -0.72179,0.69918 -47.66825,27.96194 -52.20699,30.31765 -2.32235,1.20536 -3.47706,0.72933 -16.25,-6.69903 z"
           id="path2151"
           inkscape:connector-curvature="0"
           transform="scale(0.26458333)" />
        <path
           style="opacity:1;fill:#ffff00;fill-opacity:1;fill-rule:evenodd;stroke:#302b00;stroke-width:2;stroke-miterlimit:4;stroke-dasharray:none;stroke-opacity:1"
           d="m 383.69496,502.14139 c -19.4847,-11.25103 -25.88391,-15.40186 -25,-16.21621 2.01954,-1.86062 50.83433,-29.59248 51.28921,-29.1376 0.23571,0.2357 0.30935,13.93912 0.16366,30.45203 l -0.26489,30.02349 z"
           id="path2153"
           inkscape:connector-curvature="0"
           transform="scale(0.26458333)" />
        <path
           style="opacity:1;fill:#ffff00;fill-opacity:1;fill-rule:evenodd;stroke:#302b00;stroke-width:2;stroke-miterlimit:4;stroke-dasharray:none;stroke-opacity:1"
           d="m 354.38294,574.56784 c 0,-78.86287 0.0896,-83.06892 1.75,-82.1498 0.9625,0.5328 13.45,7.69443 27.75,15.91475 l 26,14.94603 0.24483,51.37043 0.24483,51.37044 -27.08866,15.5 c -14.89876,8.525 -27.49644,15.65 -27.99483,15.83333 -0.53696,0.19752 -0.90617,-33.53218 -0.90617,-82.78518 z"
           id="path2155"
           inkscape:connector-curvature="0"
           transform="scale(0.26458333)" />
        <path
           style="opacity:1;fill:#ffff00;fill-opacity:1;fill-rule:evenodd;stroke:#302b00;stroke-width:2;stroke-miterlimit:4;stroke-dasharray:none;stroke-opacity:1"
           d="m 427.63294,633.28038 -12.25,-7.14748 v -49.75463 -49.75461 l 12.48144,7.19801 12.48143,7.19802 0.0186,49.75 c 0.0102,27.3625 -0.0939,49.72934 -0.23143,49.70408 -0.1375,-0.0252 -5.7625,-3.26228 -12.5,-7.19339 z"
           id="path2157"
           inkscape:connector-curvature="0"
           transform="scale(0.26458333)" />
        <path
           style="opacity:1;fill:#ffff00;fill-opacity:1;fill-rule:evenodd;stroke:#302b00;stroke-width:2;stroke-miterlimit:4;stroke-dasharray:none;stroke-opacity:1"
           d="m 398.15297,686.71709 c -22.40148,-13.0006 -40.40148,-23.95289 -40,-24.33841 1.67819,-1.61148 53.23251,-30.85899 54.39486,-30.85899 0.69839,0 7.247,3.42277 14.55246,7.60617 l 13.28265,7.60617 v 31.89383 c 0,17.5416 -0.3375,31.85667 -0.75,31.81126 -0.4125,-0.0454 -19.07848,-10.71942 -41.47997,-23.72003 z"
           id="path2159"
           inkscape:connector-curvature="0"
           transform="scale(0.26458333)" />
        <path
           style="opacity:1;fill:#ffff00;fill-opacity:1;fill-rule:evenodd;stroke:#302b00;stroke-width:2;stroke-miterlimit:4;stroke-dasharray:none;stroke-opacity:1"
           d="m 445.38294,680.18421 v -30.54944 l 16.25,9.45276 c 8.9375,5.19902 20.85495,12.03562 26.48323,15.19246 5.62827,3.15683 10.22791,5.9647 10.22141,6.2397 -0.0126,0.5328 -48.61268,28.54781 -51.33993,29.59435 -1.46456,0.56201 -1.61471,-2.22108 -1.61471,-29.92983 z"
           id="path2161"
           inkscape:connector-curvature="0"
           transform="scale(0.26458333)" />
      </g>
    </g>
  </g>
</svg>
