<?xml version="1.0" encoding="UTF-8" standalone="no"?>
<svg
   xmlns:dc="http://purl.org/dc/elements/1.1/"
   xmlns:cc="http://creativecommons.org/ns#"
   xmlns:rdf="http://www.w3.org/1999/02/22-rdf-syntax-ns#"
   xmlns:svg="http://www.w3.org/2000/svg"
   xmlns="http://www.w3.org/2000/svg"
   xmlns:xlink="http://www.w3.org/1999/xlink"
   xmlns:sodipodi="http://sodipodi.sourceforge.net/DTD/sodipodi-0.dtd"
   xmlns:inkscape="http://www.inkscape.org/namespaces/inkscape"
   width="79.375mm"
   height="57.570908mm"
   viewBox="0 0 79.375 57.570908"
   version="1.1"
   id="svg2"
   sodipodi:version="0.32"
   inkscape:version="0.92.4 (5da689c313, 2019-01-14)"
   sodipodi:docname="LShapeRebarTR.svg"
   inkscape:output_extension="org.inkscape.output.svg.inkscape">
  <!-- Working space 10 10 410 287 -->
  <!-- Title block 220 227 410 287 -->
  <metadata
     id="metadata849">
    <rdf:RDF>
      <cc:Work
         rdf:about="">
        <dc:format>image/svg+xml</dc:format>
        <dc:type
           rdf:resource="http://purl.org/dc/dcmitype/StillImage" />
        <dc:title></dc:title>
      </cc:Work>
    </rdf:RDF>
  </metadata>
  <defs
     id="defs847">
    <linearGradient
       x1="649.42902"
       y1="807.466"
       x2="655.35199"
       y2="485.909"
       id="defitem29"
       gradientUnits="userSpaceOnUse">
      <stop
         style="stop-color:#ffffff;stop-opacity:1.0000000;"
         offset="0.0000000"
         id="stop92" />
      <stop
         style="stop-color:#ffffff;stop-opacity:0.13756600;"
         offset="1.0000000"
         id="stop93" />
    </linearGradient>
    <linearGradient
       y2="485.909"
       x2="655.35199"
       y1="807.466"
       x1="649.42902"
       gradientUnits="userSpaceOnUse"
       id="linearGradient3448"
       xlink:href="#defitem29"
       inkscape:collect="always" />
    <radialGradient
       cx="1049.72"
       cy="345.56"
       r="1202.15"
       fx="1049.72"
       fy="345.56"
       id="defitem28"
       gradientUnits="userSpaceOnUse">
      <stop
         style="stop-color:#ffffff;stop-opacity:1.0000000;"
         offset="0.0000000"
         id="stop89" />
      <stop
         style="stop-color:#a8a8a8;stop-opacity:1.0000000;"
         offset="1.0000000"
         id="stop90" />
    </radialGradient>
    <radialGradient
       r="1202.15"
       fy="64.844765"
       fx="1089.4004"
       cy="64.845284"
       cx="1092.7045"
       gradientUnits="userSpaceOnUse"
       id="radialGradient3446"
       xlink:href="#defitem28"
       inkscape:collect="always" />
    <linearGradient
       x1="287.5"
       y1="636.70697"
       x2="980"
       y2="636.70697"
       id="defitem30"
       gradientUnits="userSpaceOnUse">
      <stop
         style="stop-color:#464646;stop-opacity:1.0000000;"
         offset="0.0000000"
         id="stop95" />
      <stop
         style="stop-color:#c2c2c2;stop-opacity:1.0000000;"
         offset="1.0000000"
         id="stop96" />
    </linearGradient>
    <linearGradient
       y2="636.70697"
       x2="980"
       y1="636.70697"
       x1="287.5"
       gradientTransform="matrix(1,0,0,1.016038,0,-11.73855)"
       gradientUnits="userSpaceOnUse"
       id="linearGradient3444"
       xlink:href="#defitem30"
       inkscape:collect="always" />
    <linearGradient
       x1="921.091"
       y1="403.18799"
       x2="985.98199"
       y2="317.44699"
       id="defitem27"
       gradientUnits="userSpaceOnUse">
      <stop
         style="stop-color:#7e7e7e;stop-opacity:1.0000000;"
         offset="0.0000000"
         id="stop86" />
      <stop
         style="stop-color:#e5e5e5;stop-opacity:1.0000000;"
         offset="1.0000000"
         id="stop87" />
    </linearGradient>
    <linearGradient
       y2="317.44699"
       x2="985.98199"
       y1="403.18799"
       x1="921.091"
       gradientUnits="userSpaceOnUse"
       id="linearGradient3442"
       xlink:href="#defitem27"
       inkscape:collect="always" />
    <linearGradient
       x1="530.76099"
       y1="346.30399"
       x2="293.37"
       y2="360.27499"
       id="defitem26"
       gradientUnits="userSpaceOnUse">
      <stop
         style="stop-color:#5f5f5f;stop-opacity:1.0000000;"
         offset="0.0000000"
         id="stop83" />
      <stop
         style="stop-color:#e5e5e5;stop-opacity:1.0000000;"
         offset="1.0000000"
         id="stop84" />
    </linearGradient>
    <linearGradient
       y2="360.27499"
       x2="293.37"
       y1="346.30399"
       x1="530.76099"
       gradientUnits="userSpaceOnUse"
       id="linearGradient3440"
       xlink:href="#defitem26"
       inkscape:collect="always" />
    <linearGradient
       x1="164.013"
       y1="412.91901"
       x2="308.75"
       y2="337.60999"
       id="defitem25"
       gradientUnits="userSpaceOnUse">
      <stop
         style="stop-color:#ffffff;stop-opacity:1.0000000;"
         offset="0.0000000"
         id="stop80" />
      <stop
         style="stop-color:#bfbfbf;stop-opacity:1.0000000;"
         offset="1.0000000"
         id="stop81" />
    </linearGradient>
    <linearGradient
       y2="337.60999"
       x2="308.75"
       y1="412.91901"
       x1="164.013"
       gradientUnits="userSpaceOnUse"
       id="linearGradient3438"
       xlink:href="#defitem25"
       inkscape:collect="always" />
    <linearGradient
       x1="1094.25"
       y1="270.854"
       x2="992.48901"
       y2="380.47198"
       id="defitem24"
       gradientUnits="userSpaceOnUse">
      <stop
         style="stop-color:#6a6a6a;stop-opacity:1.0000000;"
         offset="0.0000000"
         id="stop77" />
      <stop
         style="stop-color:#e6e6e6;stop-opacity:1.0000000;"
         offset="1.0000000"
         id="stop78" />
    </linearGradient>
    <linearGradient
       y2="380.47198"
       x2="992.48901"
       y1="270.854"
       x1="1094.25"
       gradientUnits="userSpaceOnUse"
       id="linearGradient3436"
       xlink:href="#defitem24"
       inkscape:collect="always" />
    <linearGradient
       x1="1170.91"
       y1="476.465"
       x2="1049.84"
       y2="549.37799"
       id="defitem23"
       gradientUnits="userSpaceOnUse">
      <stop
         style="stop-color:#5f5f5f;stop-opacity:1.0000000;"
         offset="0.0000000"
         id="stop74" />
      <stop
         style="stop-color:#ebebeb;stop-opacity:1.0000000;"
         offset="1.0000000"
         id="stop75" />
    </linearGradient>
    <linearGradient
       y2="549.37799"
       x2="1049.84"
       y1="476.465"
       x1="1170.91"
       gradientUnits="userSpaceOnUse"
       id="linearGradient3434"
       xlink:href="#defitem23"
       inkscape:collect="always" />
    <linearGradient
       x1="783.716"
       y1="105.486"
       x2="576.14899"
       y2="313.276"
       id="defitem22"
       gradientUnits="userSpaceOnUse">
      <stop
         style="stop-color:#5a5a5a;stop-opacity:1.0000000;"
         offset="0.0000000"
         id="stop71" />
      <stop
         style="stop-color:#c7c7c7;stop-opacity:1.0000000;"
         offset="1.0000000"
         id="stop72" />
    </linearGradient>
    <linearGradient
       y2="313.276"
       x2="576.14899"
       y1="105.486"
       x1="783.716"
       gradientUnits="userSpaceOnUse"
       id="linearGradient3432"
       xlink:href="#defitem22"
       inkscape:collect="always" />
    <linearGradient
       x1="280.04401"
       y1="418.698"
       x2="128.05499"
       y2="484.716"
       id="defitem21"
       gradientUnits="userSpaceOnUse">
      <stop
         style="stop-color:#666666;stop-opacity:1.0000000;"
         offset="0.0000000"
         id="stop68" />
      <stop
         style="stop-color:#d8d8d8;stop-opacity:1.0000000;"
         offset="1.0000000"
         id="stop69" />
    </linearGradient>
    <linearGradient
       y2="484.716"
       x2="128.05499"
       y1="418.698"
       x1="280.04401"
       gradientUnits="userSpaceOnUse"
       id="linearGradient3430"
       xlink:href="#defitem21"
       inkscape:collect="always" />
    <linearGradient
       x1="129.687"
       y1="636.95398"
       x2="220"
       y2="584.40997"
       id="defitem20"
       gradientUnits="userSpaceOnUse">
      <stop
         style="stop-color:#ffffff;stop-opacity:1.0000000;"
         offset="0.0000000"
         id="stop65" />
      <stop
         style="stop-color:#bbbbbb;stop-opacity:1.0000000;"
         offset="1.0000000"
         id="stop66" />
    </linearGradient>
    <linearGradient
       y2="584.40997"
       x2="220"
       y1="636.95398"
       x1="129.687"
       gradientUnits="userSpaceOnUse"
       id="linearGradient3428"
       xlink:href="#defitem20"
       inkscape:collect="always" />
    <linearGradient
       x1="1048.72"
       y1="629.02802"
       x2="1127.98"
       y2="583.75299"
       id="defitem19"
       gradientUnits="userSpaceOnUse">
      <stop
         style="stop-color:#5e5e5e;stop-opacity:1.0000000;"
         offset="0.0000000"
         id="stop62" />
      <stop
         style="stop-color:#ededed;stop-opacity:1.0000000;"
         offset="1.0000000"
         id="stop63" />
    </linearGradient>
    <linearGradient
       y2="583.75299"
       x2="1127.98"
       y1="629.02802"
       x1="1048.72"
       gradientUnits="userSpaceOnUse"
       id="linearGradient3426"
       xlink:href="#defitem19"
       inkscape:collect="always" />
    <linearGradient
       x1="370.022"
       y1="387.27301"
       x2="581.32397"
       y2="291.97699"
       id="defitem18"
       gradientUnits="userSpaceOnUse">
      <stop
         style="stop-color:#636363;stop-opacity:1.0000000;"
         offset="0.0000000"
         id="stop59" />
      <stop
         style="stop-color:#d6d6d6;stop-opacity:1.0000000;"
         offset="1.0000000"
         id="stop60" />
    </linearGradient>
    <linearGradient
       y2="291.97699"
       x2="581.32397"
       y1="387.27301"
       x1="370.022"
       gradientUnits="userSpaceOnUse"
       id="linearGradient3424"
       xlink:href="#defitem18"
       inkscape:collect="always" />
    <linearGradient
       x1="732.15601"
       y1="351.939"
       x2="909.59399"
       y2="351.939"
       id="defitem17"
       gradientUnits="userSpaceOnUse">
      <stop
         style="stop-color:#676767;stop-opacity:1.0000000;"
         offset="0.0000000"
         id="stop56" />
      <stop
         style="stop-color:#d3d3d3;stop-opacity:1.0000000;"
         offset="1.0000000"
         id="stop57" />
    </linearGradient>
    <linearGradient
       y2="351.939"
       x2="909.59399"
       y1="351.939"
       x1="732.15601"
       gradientUnits="userSpaceOnUse"
       id="linearGradient3422"
       xlink:href="#defitem17"
       inkscape:collect="always" />
    <linearGradient
       x1="1014.43"
       y1="494.71301"
       x2="1073.01"
       y2="494.71301"
       id="defitem16"
       gradientUnits="userSpaceOnUse">
      <stop
         style="stop-color:#666666;stop-opacity:1.0000000;"
         offset="0.0000000"
         id="stop53" />
      <stop
         style="stop-color:#dcdcdc;stop-opacity:1.0000000;"
         offset="1.0000000"
         id="stop54" />
    </linearGradient>
    <linearGradient
       y2="494.71301"
       x2="1073.01"
       y1="494.71301"
       x1="1014.43"
       gradientUnits="userSpaceOnUse"
       id="linearGradient3420"
       xlink:href="#defitem16"
       inkscape:collect="always" />
    <linearGradient
       x1="272.59201"
       y1="452.388"
       x2="193.27699"
       y2="516.37"
       id="defitem15"
       gradientUnits="userSpaceOnUse">
      <stop
         style="stop-color:#6e6e6e;stop-opacity:1.0000000;"
         offset="0.0000000"
         id="stop50" />
      <stop
         style="stop-color:#d8d8d8;stop-opacity:1.0000000;"
         offset="1.0000000"
         id="stop51" />
    </linearGradient>
    <linearGradient
       y2="516.37"
       x2="193.27699"
       y1="452.388"
       x1="272.59201"
       gradientUnits="userSpaceOnUse"
       id="linearGradient3418"
       xlink:href="#defitem15"
       inkscape:collect="always" />
    <radialGradient
       cx="1037.22"
       cy="211.088"
       r="1164.28"
       fx="1037.22"
       fy="211.088"
       id="defitem14"
       gradientUnits="userSpaceOnUse">
      <stop
         style="stop-color:#ffffff;stop-opacity:1.0000000;"
         offset="0.0000000"
         id="stop47" />
      <stop
         style="stop-color:#aaaaaa;stop-opacity:1.0000000;"
         offset="1.0000000"
         id="stop48" />
    </radialGradient>
    <radialGradient
       r="1164.28"
       fy="211.088"
       fx="1037.22"
       cy="211.088"
       cx="1037.22"
       gradientUnits="userSpaceOnUse"
       id="radialGradient3416"
       xlink:href="#defitem14"
       inkscape:collect="always" />
    <linearGradient
       x1="342.64999"
       y1="732.12903"
       x2="379.241"
       y2="686.83002"
       id="defitem13"
       gradientUnits="userSpaceOnUse">
      <stop
         style="stop-color:#ffffff;stop-opacity:1.0000000;"
         offset="0.0000000"
         id="stop44" />
      <stop
         style="stop-color:#989898;stop-opacity:1.0000000;"
         offset="1.0000000"
         id="stop45" />
    </linearGradient>
    <linearGradient
       y2="686.83002"
       x2="379.241"
       y1="732.12903"
       x1="342.64999"
       gradientUnits="userSpaceOnUse"
       id="linearGradient3414"
       xlink:href="#defitem13"
       inkscape:collect="always" />
    <radialGradient
       cx="632.78101"
       cy="484.409"
       r="540.27899"
       fx="632.78101"
       fy="484.409"
       id="defitem12"
       gradientUnits="userSpaceOnUse">
      <stop
         style="stop-color:#ffffff;stop-opacity:1.0000000;"
         offset="0.0000000"
         id="stop41" />
      <stop
         style="stop-color:#ededed;stop-opacity:1.0000000;"
         offset="1.0000000"
         id="stop42" />
    </radialGradient>
    <radialGradient
       r="540.27899"
       fy="484.409"
       fx="632.78101"
       cy="484.409"
       cx="632.78101"
       gradientUnits="userSpaceOnUse"
       id="radialGradient3412"
       xlink:href="#defitem12"
       inkscape:collect="always" />
    <inkscape:perspective
       id="perspective3148"
       inkscape:persp3d-origin="31.999999 : 21.333333 : 1"
       inkscape:vp_z="63.999998 : 31.999999 : 1"
       inkscape:vp_y="0 : 999.99998 : 0"
       inkscape:vp_x="0 : 31.999999 : 1"
       sodipodi:type="inkscape:persp3d" />
    <linearGradient
       id="linearGradient3682">
      <stop
         id="stop3684"
         offset="0"
         style="stop-color:#ff6d0f;stop-opacity:1;" />
      <stop
         id="stop3686"
         offset="1"
         style="stop-color:#ff1000;stop-opacity:1;" />
    </linearGradient>
    <linearGradient
       id="linearGradient3864">
      <stop
         style="stop-color:#71b2f8;stop-opacity:1;"
         offset="0"
         id="stop3866" />
      <stop
         style="stop-color:#002795;stop-opacity:1;"
         offset="1"
         id="stop3868" />
    </linearGradient>
  </defs>
  <sodipodi:namedview
     inkscape:window-height="706"
     inkscape:window-width="1366"
     inkscape:pageshadow="2"
     inkscape:pageopacity="0.0"
     guidetolerance="10.0"
     gridtolerance="10.0"
     objecttolerance="10.0"
     borderopacity="1.0"
     bordercolor="#666666"
     pagecolor="#ffffff"
     id="base"
     inkscape:window-x="0"
     inkscape:window-y="0"
     inkscape:current-layer="Ortho_-1_-1"
     inkscape:document-units="mm"
     showgrid="false"
     inkscape:window-maximized="1"
     inkscape:zoom="0.75664138"
     inkscape:cx="169.20016"
     inkscape:cy="119.7285"
     fit-margin-top="0"
     fit-margin-left="0"
     fit-margin-right="0"
     fit-margin-bottom="0" />
  <g
     id="g4"
     style="fill:none;stroke:#000000;stroke-width:0.34999999;stroke-linecap:butt;stroke-linejoin:miter"
     transform="matrix(1.1075804,0,0,1.1075804,-33.313136,-262.05944)" />
  <g
     id="g452"
     style="fill:none;stroke:#000000;stroke-width:0.13;stroke-linecap:butt;stroke-linejoin:miter"
     transform="matrix(1.1075804,0,0,1.1075804,-33.313136,-262.05944)" />
  <g
     id="Ortho_-1_-1"
     transform="matrix(0.05542611,0.09600082,-0.09600082,0.05542611,118.61428,22.589846)">
    <g
       id="g9315"
       transform="matrix(0.49970365,0,0,0.49970365,-130.93947,542.54564)">
      <path
         style="fill:none;stroke:#862525;stroke-width:19.98300934;stroke-linecap:round;stroke-linejoin:miter;stroke-miterlimit:4;stroke-dasharray:none;stroke-dashoffset:0;stroke-opacity:1"
         inkscape:connector-curvature="0"
         id="path557-62-7"
         d="m -52.800603,-365.63985 c -1.19457,-0.68467 -2.55407,-1.39573 -4.172862,-2.13485 -1.623762,-0.7401 -3.506584,-1.50827 -5.869469,-2.29368 -1.382653,-0.45798 -2.934386,-0.91934 -4.750056,-1.37275 -1.81864,-0.45239 -3.901314,-0.89783 -6.420824,-1.28767 -1.594914,-0.2442 -3.364714,-0.46677 -5.349365,-0.62957 -1.97665,-0.16281 -4.16907,-0.26485 -6.412054,-0.26472 -2.179074,-0.003 -4.344734,0.0908 -6.313244,0.24794 -1.976504,0.15619 -3.754697,0.37466 -5.356817,0.61548 -2.516703,0.38115 -4.605166,0.81974 -6.429606,1.26537 -1.82233,0.44863 -3.37976,0.90429 -4.7701,1.35736 -2.58101,0.84438 -4.59901,1.67072 -6.32618,2.462 -1.72121,0.79226 -3.15046,1.54946 -4.39884,2.277" />
      <path
         style="fill:none;stroke:#862525;stroke-width:19.98300934;stroke-linecap:round;stroke-linejoin:miter;stroke-miterlimit:4;stroke-dasharray:none;stroke-dashoffset:0;stroke-opacity:1"
         inkscape:connector-curvature="0"
         d="M -132.54033,326.36014 -753.48954,687.87743"
         id="path561-9-3-5" />
      <path
         sodipodi:nodetypes="cc"
         style="fill:none;stroke:#862525;stroke-width:19.98300934;stroke-linecap:round;stroke-linejoin:miter;stroke-miterlimit:4;stroke-dasharray:none;stroke-dashoffset:0;stroke-opacity:1"
         inkscape:connector-curvature="0"
         d="M 27.544133,381.59511 -65.970882,326.11819"
         id="path553-5-6-3" />
      <path
         style="fill:none;stroke:#862525;stroke-width:19.98300934;stroke-linecap:round;stroke-linejoin:miter;stroke-miterlimit:4;stroke-dasharray:none;stroke-dashoffset:0;stroke-opacity:1"
         inkscape:connector-curvature="0"
         id="path557-62-7-5"
         d="m -65.970882,326.11819 c -1.19494,-0.68402 -2.554033,-1.39578 -4.172833,-2.1349 -1.623713,-0.74019 -3.506586,-1.50827 -5.869479,-2.29367 -1.38266,-0.458 -2.934393,-0.91933 -4.750073,-1.37275 -1.818633,-0.45238 -3.901326,-0.89783 -6.420806,-1.28766 -1.594934,-0.24421 -3.364734,-0.46679 -5.349378,-0.62959 -1.976652,-0.1628 -4.169085,-0.26486 -6.412075,-0.26472 -2.179064,-0.003 -4.344734,0.0908 -6.313244,0.24794 -1.9765,0.1562 -3.75467,0.37466 -5.35682,0.61549 -2.51668,0.38116 -4.60514,0.81973 -6.42957,1.26536 -1.82234,0.44864 -3.37977,0.90429 -4.77012,1.35736 -2.58102,0.84439 -4.59899,1.67073 -6.32618,2.46201 -1.7212,0.79225 -3.15046,1.54947 -4.39885,2.277" />
      <path
         style="fill:none;stroke:#862525;stroke-width:19.98300934;stroke-linecap:round;stroke-linejoin:miter;stroke-miterlimit:4;stroke-dasharray:none;stroke-dashoffset:0;stroke-opacity:1"
         inkscape:connector-curvature="0"
         id="path557-62-7-0"
         d="m -63.826387,-13.659041 c -1.19494,-0.68402 -2.55403,-1.395784 -4.172834,-2.134904 -1.62371,-0.74019 -3.50658,-1.50827 -5.869474,-2.29367 -1.38266,-0.458 -2.934394,-0.91933 -4.750074,-1.372754 -1.81863,-0.45238 -3.901324,-0.89783 -6.420808,-1.28766 -1.59493,-0.24421 -3.36473,-0.46679 -5.349374,-0.62959 -1.97665,-0.1628 -4.169084,-0.26486 -6.412074,-0.26472 -2.179064,-0.003 -4.344735,0.0908 -6.313245,0.24794 -1.9765,0.1562 -3.75467,0.37466 -5.35682,0.61549 -2.51668,0.38116 -4.60514,0.81973 -6.42957,1.26536 -1.82234,0.448644 -3.37977,0.904294 -4.77012,1.357364 -2.58102,0.84439 -4.59899,1.67073 -6.32618,2.46201 -1.7212,0.79225 -3.15046,1.549474 -4.39885,2.277004" />
      <path
         style="fill:none;stroke:#862525;stroke-width:19.98300934;stroke-linecap:round;stroke-linejoin:miter;stroke-miterlimit:4;stroke-dasharray:none;stroke-dashoffset:0;stroke-opacity:1"
         inkscape:connector-curvature="0"
         id="path557-62-7-06"
         d="m -61.730842,-200.59565 c -1.19494,-0.68402 -2.554034,-1.39578 -4.172844,-2.1349 -1.623713,-0.74019 -3.506583,-1.50827 -5.869477,-2.29367 -1.38265,-0.458 -2.93439,-0.91934 -4.750074,-1.37276 -1.81863,-0.45237 -3.901324,-0.89782 -6.420804,-1.28765 -1.594934,-0.24421 -3.364734,-0.46679 -5.349374,-0.62959 -1.976654,-0.1628 -4.169084,-0.26486 -6.412078,-0.26472 -2.179063,-0.003 -4.344733,0.0908 -6.313247,0.24794 -1.9765,0.1562 -3.75468,0.37466 -5.35683,0.61549 -2.51668,0.38116 -4.60514,0.81973 -6.42957,1.26535 -1.82234,0.44864 -3.37977,0.9043 -4.77012,1.35737 -2.58102,0.84439 -4.59899,1.67073 -6.32618,2.46201 -1.7212,0.79225 -3.15046,1.54947 -4.39885,2.277" />
      <g
         style="fill:none;stroke:#000000;stroke-width:12.5;stroke-linecap:butt;stroke-linejoin:miter;stroke-dasharray:0.2, 0.1"
         id="g483"
         transform="scale(1,-1)">
        <path
           style="stroke-width:13.74803638;stroke-linecap:round;stroke-miterlimit:4;stroke-dasharray:54.99214389, 27.49607195;stroke-dashoffset:0"
           inkscape:connector-curvature="0"
           d="M 88.3883,357.217 -618.718,-51.031"
           id="path485" />
        <path
           style="stroke-width:13.74803543;stroke-linecap:round;stroke-miterlimit:4;stroke-dasharray:41.24410719, 41.24410719;stroke-dashoffset:0"
           inkscape:connector-curvature="0"
           d="M -795.495,51.031 -618.718,-51.031"
           id="path487" />
        <path
           style="stroke-width:13.74803543;stroke-linecap:round;stroke-miterlimit:4;stroke-dasharray:41.24410719, 41.24410719;stroke-dashoffset:0"
           inkscape:connector-curvature="0"
           d="M -618.718,-51.031 V -867.528"
           id="path489" />
      </g>
      <path
         sodipodi:nodetypes="ccccc"
         inkscape:connector-curvature="0"
         id="path5114"
         d="M -786.34626,770.10681 -625.1055,862.43852 76.604434,462.72765 -94.863511,364.76451 Z"
         style="fill:#0088aa;fill-opacity:0.74213837;fill-rule:evenodd;stroke:#000000;stroke-width:2.3518517px;stroke-linecap:butt;stroke-linejoin:miter;stroke-opacity:1" />
      <path
         style="fill:none;stroke:#862525;stroke-width:19.98300934;stroke-linecap:round;stroke-linejoin:miter;stroke-miterlimit:4;stroke-dasharray:none;stroke-dashoffset:0;stroke-opacity:1"
         inkscape:connector-curvature="0"
         id="path557-62-7-9"
         d="m -69.6494,159.36634 c -1.194943,-0.68402 -2.554033,-1.39578 -4.172836,-2.1349 -1.62371,-0.74019 -3.506583,-1.50827 -5.869476,-2.29367 -1.382663,-0.458 -2.934393,-0.91933 -4.750076,-1.37275 -1.818633,-0.45238 -3.901323,-0.89783 -6.420806,-1.28766 -1.594933,-0.24421 -3.364736,-0.46679 -5.349379,-0.62959 -1.97665,-0.1628 -4.169087,-0.26486 -6.412077,-0.26472 -2.17906,-0.003 -4.34473,0.0908 -6.31324,0.24794 -1.9765,0.1562 -3.75467,0.37466 -5.35682,0.61549 -2.51668,0.38116 -4.60514,0.81973 -6.42957,1.26536 -1.82234,0.44864 -3.37977,0.90429 -4.77012,1.35736 -2.58102,0.84439 -4.59899,1.67073 -6.32618,2.46201 -1.7212,0.79225 -3.15046,1.54947 -4.39885,2.277" />
      <g
         style="fill:none;stroke:#000000;stroke-width:12.5;stroke-linecap:butt;stroke-linejoin:miter"
         id="g655"
         transform="scale(1,-1)">
        <path
           style="stroke-width:18.49427605;stroke-linecap:round;stroke-miterlimit:4;stroke-dasharray:none;stroke-dashoffset:0"
           inkscape:connector-curvature="0"
           d="M 88.3883,-459.279 -618.718,-867.528"
           id="path657" />
        <path
           style="stroke-width:18.49427605;stroke-miterlimit:4;stroke-dasharray:none;stroke-dashoffset:0"
           inkscape:connector-curvature="0"
           d="M -88.3883,-357.217 -795.495,-765.466"
           id="path659" />
        <path
           style="stroke-width:18.49427605;stroke-linecap:round;stroke-miterlimit:4;stroke-dasharray:none;stroke-dashoffset:0"
           inkscape:connector-curvature="0"
           d="M 88.3883,-459.279 -88.3883,-357.217"
           id="path661" />
        <path
           style="stroke-width:18.49427605;stroke-linecap:round;stroke-miterlimit:4;stroke-dasharray:none;stroke-dashoffset:0"
           inkscape:connector-curvature="0"
           d="m -618.718,-867.528 -176.777,102.062"
           id="path663" />
        <path
           style="stroke-width:18.49427605;stroke-linecap:round;stroke-miterlimit:4;stroke-dasharray:none;stroke-dashoffset:0"
           inkscape:connector-curvature="0"
           d="M -88.3883,459.279 -795.495,51.031"
           id="path665" />
        <path
           sodipodi:nodetypes="cc"
           style="stroke-width:18.49427605;stroke-linecap:round;stroke-miterlimit:4;stroke-dasharray:none;stroke-dashoffset:0"
           inkscape:connector-curvature="0"
           d="m -795.495,-765.466 c 0,272.16567 0,544.33133 0,816.497"
           id="7" />
        <path
           style="stroke-width:18.49427605;stroke-linecap:round;stroke-miterlimit:4;stroke-dasharray:none;stroke-dashoffset:0"
           inkscape:connector-curvature="0"
           d="M -88.3883,459.279 88.3883,357.217"
           id="path670" />
        <path
           style="stroke-width:18.49427605;stroke-linecap:round;stroke-miterlimit:4;stroke-dasharray:none;stroke-dashoffset:0"
           inkscape:connector-curvature="0"
           d="M 88.3883,357.217 V -459.279"
           id="path673" />
        <path
           style="stroke-width:18.49427605;stroke-linecap:round;stroke-miterlimit:4;stroke-dasharray:none;stroke-dashoffset:0"
           inkscape:connector-curvature="0"
           d="M -88.3883,-357.217 V 459.279"
           id="path667" />
      </g>
      <path
         transform="matrix(1.1759259,-2.0367634,2.0367634,1.1759259,-1884.1755,837.09102)"
         inkscape:connector-curvature="0"
         id="path5096"
         d="M 426.43879,536.60277 C 314.95119,472.26971 297.15214,461.7924 294.40712,458.88311 l -3.17273,-3.3626 5.48558,-3.13639 c 4.44269,-2.54012 5.48559,-3.43346 5.48559,-4.69894 0,-0.94968 -0.44383,-1.64802 -1.13157,-1.78047 -1.09182,-0.21026 -10.34538,4.74485 -11.16556,5.97896 -0.22136,0.33306 -0.96477,-0.68231 -1.65204,-2.25638 -1.11973,-2.56455 -1.27041,-4.97346 -1.45003,-23.18201 -0.11025,-11.17603 -0.0447,-20.32006 0.14563,-20.32006 0.19034,0 9.44253,5.24544 20.56041,11.65654 14.2434,8.21342 20.00734,11.86351 19.51361,12.35724 -1.05133,1.05134 -0.84344,3.06634 0.36418,3.52975 0.58568,0.22475 1.87231,-0.0683 2.85917,-0.65128 l 1.79429,-1.05991 111.79224,64.5429 111.79224,64.54291 v 24.96726 c 0,13.73199 -0.0743,24.96319 -0.1652,24.95823 -0.0909,-0.005 -58.15173,-33.46971 -129.02414,-74.36609 z M 315.81874,441.40041 c 4.29482,-2.47725 5.25358,-3.31735 5.09053,-4.4605 -0.11786,-0.82631 -0.74713,-1.47742 -1.52252,-1.57537 -1.97605,-0.24962 -11.56426,5.56907 -11.56426,7.01788 0,2.9287 1.54523,2.73893 7.99625,-0.98201 z"
         style="opacity:0.71199999;fill:#483737;fill-opacity:0;stroke:none;stroke-width:3.54330707;stroke-linecap:round;stroke-linejoin:round;stroke-miterlimit:4;stroke-dasharray:10.62992126, 10.62992126;stroke-dashoffset:0;stroke-opacity:1" />
      <path
         transform="matrix(1.1759259,-2.0367634,2.0367634,1.1759259,-1884.1755,837.09102)"
         inkscape:connector-curvature="0"
         id="path5098"
         d="M 426.43879,536.60277 C 314.95119,472.26971 297.15214,461.7924 294.40712,458.88311 l -3.17273,-3.3626 5.48558,-3.13639 c 4.44269,-2.54012 5.48559,-3.43346 5.48559,-4.69894 0,-0.94968 -0.44383,-1.64802 -1.13157,-1.78047 -1.09182,-0.21026 -10.34538,4.74485 -11.16556,5.97896 -0.22136,0.33306 -0.96477,-0.68231 -1.65204,-2.25638 -1.11973,-2.56455 -1.27041,-4.97346 -1.45003,-23.18201 -0.11025,-11.17603 -0.0447,-20.32006 0.14563,-20.32006 0.19034,0 9.44253,5.24544 20.56041,11.65654 14.2434,8.21342 20.00734,11.86351 19.51361,12.35724 -1.05133,1.05134 -0.84344,3.06634 0.36418,3.52975 0.58568,0.22475 1.87231,-0.0683 2.85917,-0.65128 l 1.79429,-1.05991 111.79224,64.5429 111.79224,64.54291 v 24.96726 c 0,13.73199 -0.0743,24.96319 -0.1652,24.95823 -0.0909,-0.005 -58.15173,-33.46971 -129.02414,-74.36609 z M 315.81874,441.40041 c 4.29482,-2.47725 5.25358,-3.31735 5.09053,-4.4605 -0.11786,-0.82631 -0.74713,-1.47742 -1.52252,-1.57537 -1.97605,-0.24962 -11.56426,5.56907 -11.56426,7.01788 0,2.9287 1.54523,2.73893 7.99625,-0.98201 z"
         style="opacity:0.71199999;fill:#483737;fill-opacity:0;stroke:none;stroke-width:3.54330707;stroke-linecap:round;stroke-linejoin:round;stroke-miterlimit:4;stroke-dasharray:10.62992126, 10.62992126;stroke-dashoffset:0;stroke-opacity:1" />
      <path
         transform="matrix(1.1759259,-2.0367634,2.0367634,1.1759259,-1884.1755,837.09102)"
         inkscape:connector-curvature="0"
         id="path5100"
         d="M 426.43879,536.60277 C 314.95119,472.26971 297.15214,461.7924 294.40712,458.88311 l -3.17273,-3.3626 5.48558,-3.13639 c 4.44269,-2.54012 5.48559,-3.43346 5.48559,-4.69894 0,-0.94968 -0.44383,-1.64802 -1.13157,-1.78047 -1.09182,-0.21026 -10.34538,4.74485 -11.16556,5.97896 -0.22136,0.33306 -0.96477,-0.68231 -1.65204,-2.25638 -1.11973,-2.56455 -1.27041,-4.97346 -1.45003,-23.18201 -0.11025,-11.17603 -0.0447,-20.32006 0.14563,-20.32006 0.19034,0 9.44253,5.24544 20.56041,11.65654 14.2434,8.21342 20.00734,11.86351 19.51361,12.35724 -1.05133,1.05134 -0.84344,3.06634 0.36418,3.52975 0.58568,0.22475 1.87231,-0.0683 2.85917,-0.65128 l 1.79429,-1.05991 111.79224,64.5429 111.79224,64.54291 v 24.96726 c 0,13.73199 -0.0743,24.96319 -0.1652,24.95823 -0.0909,-0.005 -58.15173,-33.46971 -129.02414,-74.36609 z M 315.81874,441.40041 c 4.29482,-2.47725 5.25358,-3.31735 5.09053,-4.4605 -0.11786,-0.82631 -0.74713,-1.47742 -1.52252,-1.57537 -1.97605,-0.24962 -11.56426,5.56907 -11.56426,7.01788 0,2.9287 1.54523,2.73893 7.99625,-0.98201 z"
         style="opacity:0.71199999;fill:#483737;fill-opacity:0;stroke:none;stroke-width:3.54330707;stroke-linecap:round;stroke-linejoin:round;stroke-miterlimit:4;stroke-dasharray:10.62992126, 10.62992126;stroke-dashoffset:0;stroke-opacity:1" />
      <path
         transform="matrix(1.1759259,-2.0367634,2.0367634,1.1759259,-1884.1755,837.09102)"
         inkscape:connector-curvature="0"
         id="path5102"
         d="M 426.43879,536.60277 C 314.95119,472.26971 297.15214,461.7924 294.40712,458.88311 l -3.17273,-3.3626 5.48558,-3.13639 c 4.44269,-2.54012 5.48559,-3.43346 5.48559,-4.69894 0,-0.94968 -0.44383,-1.64802 -1.13157,-1.78047 -1.09182,-0.21026 -10.34538,4.74485 -11.16556,5.97896 -0.22136,0.33306 -0.96477,-0.68231 -1.65204,-2.25638 -1.11973,-2.56455 -1.27041,-4.97346 -1.45003,-23.18201 -0.11025,-11.17603 -0.0447,-20.32006 0.14563,-20.32006 0.19034,0 9.44253,5.24544 20.56041,11.65654 14.2434,8.21342 20.00734,11.86351 19.51361,12.35724 -1.05133,1.05134 -0.84344,3.06634 0.36418,3.52975 0.58568,0.22475 1.87231,-0.0683 2.85917,-0.65128 l 1.79429,-1.05991 111.79224,64.5429 111.79224,64.54291 v 24.96726 c 0,13.73199 -0.0743,24.96319 -0.1652,24.95823 -0.0909,-0.005 -58.15173,-33.46971 -129.02414,-74.36609 z M 315.81874,441.40041 c 4.29482,-2.47725 5.25358,-3.31735 5.09053,-4.4605 -0.11786,-0.82631 -0.74713,-1.47742 -1.52252,-1.57537 -1.97605,-0.24962 -11.56426,5.56907 -11.56426,7.01788 0,2.9287 1.54523,2.73893 7.99625,-0.98201 z"
         style="opacity:0.71199999;fill:#483737;fill-opacity:0;stroke:none;stroke-width:3.54330707;stroke-linecap:round;stroke-linejoin:round;stroke-miterlimit:4;stroke-dasharray:10.62992126, 10.62992126;stroke-dashoffset:0;stroke-opacity:1" />
      <path
         transform="matrix(1.1759259,-2.0367634,2.0367634,1.1759259,-1884.1755,837.09102)"
         inkscape:connector-curvature="0"
         id="path5104"
         d="m 409.06723,556.31079 c -119.32805,-68.8937 -145.98981,-84.53314 -144.92225,-85.0095 1.79645,-0.80159 2.29363,-2.43438 1.10363,-3.62438 -0.79887,-0.79886 -1.31626,-0.84293 -2.66754,-0.22725 l -1.67645,0.76384 v -38.71951 -38.71951 l 1.48683,0.94472 c 0.81776,0.5196 5.27826,3.11778 9.91223,5.77372 l 8.42539,4.829 v 20.92645 c 0,23.13223 0.28635,25.39546 4.13912,32.71456 4.65763,8.84809 -2.49632,4.42262 139.91856,86.55419 71.78104,41.39658 130.59252,75.32837 130.69219,75.40399 0.0997,0.0756 0.0997,5.24003 0,11.47646 l -0.18122,11.33897 z M 278.85559,462.73573 c 3.88423,-2.29411 4.84715,-3.17842 4.84715,-4.45144 0,-2.43059 -1.63312,-2.26208 -6.7678,0.69828 -5.32006,3.06724 -6.31016,4.02496 -5.72839,5.54103 0.65345,1.70285 2.44967,1.28301 7.64904,-1.78787 z"
         style="opacity:0.71199999;fill:#483737;fill-opacity:0;stroke:none;stroke-width:3.54330707;stroke-linecap:round;stroke-linejoin:round;stroke-miterlimit:4;stroke-dasharray:10.62992126, 10.62992126;stroke-dashoffset:0;stroke-opacity:1" />
      <path
         style="fill:none;stroke:#862525;stroke-width:19.98300934;stroke-linecap:round;stroke-linejoin:miter;stroke-miterlimit:4;stroke-dasharray:none;stroke-dashoffset:0;stroke-opacity:1"
         inkscape:connector-curvature="0"
         d="M -119.37002,-365.39791 -740.31951,-3.8805935"
         id="path561-9-3" />
      <path
         sodipodi:nodetypes="cc"
         style="fill:none;stroke:#862525;stroke-width:19.98300934;stroke-linecap:round;stroke-linejoin:miter;stroke-miterlimit:4;stroke-dasharray:none;stroke-dashoffset:0;stroke-opacity:1"
         inkscape:connector-curvature="0"
         d="m 40.714332,-310.16293 -93.514935,-55.47692"
         id="path553-5-6" />
      <path
         style="fill:none;stroke:#862525;stroke-width:19.98300934;stroke-linecap:round;stroke-linejoin:miter;stroke-miterlimit:4;stroke-dasharray:none;stroke-dashoffset:0;stroke-opacity:1"
         inkscape:connector-curvature="0"
         d="M -136.21885,159.60829 -757.16806,521.12558"
         id="path561-9-3-6" />
      <path
         sodipodi:nodetypes="cc"
         style="fill:none;stroke:#862525;stroke-width:19.98300934;stroke-linecap:round;stroke-linejoin:miter;stroke-miterlimit:4;stroke-dasharray:none;stroke-dashoffset:0;stroke-opacity:1"
         inkscape:connector-curvature="0"
         d="M 23.865625,214.84326 -69.6494,159.36634"
         id="path553-5-6-2" />
      <path
         style="fill:none;stroke:#862525;stroke-width:19.98300934;stroke-linecap:round;stroke-linejoin:miter;stroke-miterlimit:4;stroke-dasharray:none;stroke-dashoffset:0;stroke-opacity:1"
         inkscape:connector-curvature="0"
         d="M -130.39583,-13.417091 -751.34504,348.1003"
         id="path561-9-3-1" />
      <path
         sodipodi:nodetypes="cc"
         style="fill:none;stroke:#862525;stroke-width:19.98300934;stroke-linecap:round;stroke-linejoin:miter;stroke-miterlimit:4;stroke-dasharray:none;stroke-dashoffset:0;stroke-opacity:1"
         inkscape:connector-curvature="0"
         d="m 29.688654,41.817929 -93.515041,-55.47697"
         id="path553-5-6-27" />
      <path
         style="fill:none;stroke:#862525;stroke-width:19.98300934;stroke-linecap:round;stroke-linejoin:miter;stroke-miterlimit:4;stroke-dasharray:none;stroke-dashoffset:0;stroke-opacity:1"
         inkscape:connector-curvature="0"
         d="M -128.30031,-200.3537 -749.24952,161.16378"
         id="path561-9-3-9" />
      <path
         sodipodi:nodetypes="cc"
         style="fill:none;stroke:#862525;stroke-width:19.98300934;stroke-linecap:round;stroke-linejoin:miter;stroke-miterlimit:4;stroke-dasharray:none;stroke-dashoffset:0;stroke-opacity:1"
         inkscape:connector-curvature="0"
         d="m 31.784213,-145.11873 -93.515055,-55.47692"
         id="path553-5-6-36" />
    </g>
  </g>
  <g
     inkscape:groupmode="layer"
     id="layer1"
     inkscape:label="rebar"
     style="display:none"
     transform="translate(-19.37466,-60.683269)" />
</svg>
