<?xml version="1.0" encoding="UTF-8" standalone="no"?>
<svg
   xmlns:dc="http://purl.org/dc/elements/1.1/"
   xmlns:cc="http://creativecommons.org/ns#"
   xmlns:rdf="http://www.w3.org/1999/02/22-rdf-syntax-ns#"
   xmlns:svg="http://www.w3.org/2000/svg"
   xmlns="http://www.w3.org/2000/svg"
   xmlns:xlink="http://www.w3.org/1999/xlink"
   xmlns:sodipodi="http://sodipodi.sourceforge.net/DTD/sodipodi-0.dtd"
   xmlns:inkscape="http://www.inkscape.org/namespaces/inkscape"
   width="200mm"
   height="120mm"
   viewBox="0 0 200 120"
   version="1.1"
   id="svg2"
   sodipodi:version="0.32"
   inkscape:version="0.91 r13725"
   sodipodi:docname="Stirrup.svg"
   inkscape:output_extension="org.inkscape.output.svg.inkscape">
  <path
     id="path561-2"
     d="M 95.225058,34.984602 156.17222,70.29806"
     inkscape:connector-curvature="0"
     style="fill:none;stroke:#862525;stroke-width:1.96074927;stroke-linecap:round;stroke-linejoin:miter;stroke-miterlimit:4;stroke-dasharray:none;stroke-dashoffset:0;stroke-opacity:1" />
  <path
     d="m 156.17222,70.29806 c 0.31769,0.184195 0.63593,0.317837 0.9413,0.401004 0.3531,0.09636 0.68793,0.12595 0.99525,0.101423 0.35864,-0.02887 0.68137,-0.129052 0.96881,-0.288944 0.29008,-0.162058 0.5456,-0.385698 0.75791,-0.676825 0.18316,-0.251526 0.33329,-0.555361 0.43427,-0.910809 0.0919,-0.322992 0.14213,-0.688359 0.14203,-1.0823"
     id="path567-6"
     inkscape:connector-curvature="0"
     style="fill:none;stroke:#862525;stroke-width:1.96074927;stroke-linecap:round;stroke-linejoin:miter;stroke-miterlimit:4;stroke-dasharray:none;stroke-dashoffset:0;stroke-opacity:1" />
  <path
     style="fill:none;fill-rule:evenodd;stroke:#862525;stroke-width:1.96060693;stroke-linecap:round;stroke-linejoin:miter;stroke-miterlimit:4;stroke-dasharray:none;stroke-opacity:1"
     d="m 158.15671,51.477896 c 0,0 2.50516,0.643144 2.21386,8.770133"
     id="path4284-7"
     inkscape:connector-curvature="0"
     sodipodi:nodetypes="cc" />
  <path
     id="path561-2-7"
     d="M 68.238537,50.974783 129.18562,86.288242"
     inkscape:connector-curvature="0"
     style="fill:none;stroke:#862525;stroke-width:1.96074927;stroke-linecap:round;stroke-linejoin:miter;stroke-miterlimit:4;stroke-dasharray:none;stroke-dashoffset:0;stroke-opacity:1" />
  <!-- Working space 10 10 410 287 -->
  <path
     id="path571-1-9"
     d="m 133.42518,83.831791 0.0287,-8.94476"
     inkscape:connector-curvature="0"
     style="fill:#000000;fill-opacity:1;stroke:#862525;stroke-width:1.96060693;stroke-linecap:round;stroke-linejoin:miter;stroke-miterlimit:4;stroke-dasharray:none;stroke-dashoffset:0;stroke-opacity:1"
     sodipodi:nodetypes="cc" />
  <!-- Title block 220 227 410 287 -->
  <metadata
     id="metadata849">
    <rdf:RDF>
      <cc:Work
         rdf:about="">
        <dc:format>image/svg+xml</dc:format>
        <dc:type
           rdf:resource="http://purl.org/dc/dcmitype/StillImage" />
        <dc:title />
      </cc:Work>
    </rdf:RDF>
  </metadata>
  <path
     style="fill:none;fill-rule:evenodd;stroke:#862525;stroke-width:1.96060693;stroke-linecap:round;stroke-linejoin:miter;stroke-miterlimit:4;stroke-dasharray:none;stroke-opacity:1"
     d="m 131.1701,67.468078 c 0,0 2.50516,0.643142 2.21387,8.770131"
     id="path4284-7-2"
     inkscape:connector-curvature="0"
     sodipodi:nodetypes="cc" />
  <defs
     id="defs847">
    <linearGradient
       x1="649.42902"
       y1="807.466"
       x2="655.35199"
       y2="485.909"
       id="defitem29"
       gradientUnits="userSpaceOnUse">
      <stop
         style="stop-color:#ffffff;stop-opacity:1.0000000;"
         offset="0.0000000"
         id="stop92" />
      <stop
         style="stop-color:#ffffff;stop-opacity:0.13756600;"
         offset="1.0000000"
         id="stop93" />
    </linearGradient>
    <linearGradient
       y2="485.909"
       x2="655.35199"
       y1="807.466"
       x1="649.42902"
       gradientUnits="userSpaceOnUse"
       id="linearGradient3448"
       xlink:href="#defitem29"
       inkscape:collect="always" />
    <radialGradient
       cx="1049.72"
       cy="345.56"
       r="1202.15"
       fx="1049.72"
       fy="345.56"
       id="defitem28"
       gradientUnits="userSpaceOnUse">
      <stop
         style="stop-color:#ffffff;stop-opacity:1.0000000;"
         offset="0.0000000"
         id="stop89" />
      <stop
         style="stop-color:#a8a8a8;stop-opacity:1.0000000;"
         offset="1.0000000"
         id="stop90" />
    </radialGradient>
    <radialGradient
       r="1202.15"
       fy="64.844765"
       fx="1089.4004"
       cy="64.845284"
       cx="1092.7045"
       gradientUnits="userSpaceOnUse"
       id="radialGradient3446"
       xlink:href="#defitem28"
       inkscape:collect="always" />
    <linearGradient
       x1="287.5"
       y1="636.70697"
       x2="980"
       y2="636.70697"
       id="defitem30"
       gradientUnits="userSpaceOnUse">
      <stop
         style="stop-color:#464646;stop-opacity:1.0000000;"
         offset="0.0000000"
         id="stop95" />
      <stop
         style="stop-color:#c2c2c2;stop-opacity:1.0000000;"
         offset="1.0000000"
         id="stop96" />
    </linearGradient>
    <linearGradient
       y2="636.70697"
       x2="980"
       y1="636.70697"
       x1="287.5"
       gradientTransform="matrix(1,0,0,1.016038,0,-11.73855)"
       gradientUnits="userSpaceOnUse"
       id="linearGradient3444"
       xlink:href="#defitem30"
       inkscape:collect="always" />
    <linearGradient
       x1="921.091"
       y1="403.18799"
       x2="985.98199"
       y2="317.44699"
       id="defitem27"
       gradientUnits="userSpaceOnUse">
      <stop
         style="stop-color:#7e7e7e;stop-opacity:1.0000000;"
         offset="0.0000000"
         id="stop86" />
      <stop
         style="stop-color:#e5e5e5;stop-opacity:1.0000000;"
         offset="1.0000000"
         id="stop87" />
    </linearGradient>
    <linearGradient
       y2="317.44699"
       x2="985.98199"
       y1="403.18799"
       x1="921.091"
       gradientUnits="userSpaceOnUse"
       id="linearGradient3442"
       xlink:href="#defitem27"
       inkscape:collect="always" />
    <linearGradient
       x1="530.76099"
       y1="346.30399"
       x2="293.37"
       y2="360.27499"
       id="defitem26"
       gradientUnits="userSpaceOnUse">
      <stop
         style="stop-color:#5f5f5f;stop-opacity:1.0000000;"
         offset="0.0000000"
         id="stop83" />
      <stop
         style="stop-color:#e5e5e5;stop-opacity:1.0000000;"
         offset="1.0000000"
         id="stop84" />
    </linearGradient>
    <linearGradient
       y2="360.27499"
       x2="293.37"
       y1="346.30399"
       x1="530.76099"
       gradientUnits="userSpaceOnUse"
       id="linearGradient3440"
       xlink:href="#defitem26"
       inkscape:collect="always" />
    <linearGradient
       x1="164.013"
       y1="412.91901"
       x2="308.75"
       y2="337.60999"
       id="defitem25"
       gradientUnits="userSpaceOnUse">
      <stop
         style="stop-color:#ffffff;stop-opacity:1.0000000;"
         offset="0.0000000"
         id="stop80" />
      <stop
         style="stop-color:#bfbfbf;stop-opacity:1.0000000;"
         offset="1.0000000"
         id="stop81" />
    </linearGradient>
    <linearGradient
       y2="337.60999"
       x2="308.75"
       y1="412.91901"
       x1="164.013"
       gradientUnits="userSpaceOnUse"
       id="linearGradient3438"
       xlink:href="#defitem25"
       inkscape:collect="always" />
    <linearGradient
       x1="1094.25"
       y1="270.854"
       x2="992.48901"
       y2="380.47198"
       id="defitem24"
       gradientUnits="userSpaceOnUse">
      <stop
         style="stop-color:#6a6a6a;stop-opacity:1.0000000;"
         offset="0.0000000"
         id="stop77" />
      <stop
         style="stop-color:#e6e6e6;stop-opacity:1.0000000;"
         offset="1.0000000"
         id="stop78" />
    </linearGradient>
    <linearGradient
       y2="380.47198"
       x2="992.48901"
       y1="270.854"
       x1="1094.25"
       gradientUnits="userSpaceOnUse"
       id="linearGradient3436"
       xlink:href="#defitem24"
       inkscape:collect="always" />
    <linearGradient
       x1="1170.91"
       y1="476.465"
       x2="1049.84"
       y2="549.37799"
       id="defitem23"
       gradientUnits="userSpaceOnUse">
      <stop
         style="stop-color:#5f5f5f;stop-opacity:1.0000000;"
         offset="0.0000000"
         id="stop74" />
      <stop
         style="stop-color:#ebebeb;stop-opacity:1.0000000;"
         offset="1.0000000"
         id="stop75" />
    </linearGradient>
    <linearGradient
       y2="549.37799"
       x2="1049.84"
       y1="476.465"
       x1="1170.91"
       gradientUnits="userSpaceOnUse"
       id="linearGradient3434"
       xlink:href="#defitem23"
       inkscape:collect="always" />
    <linearGradient
       x1="783.716"
       y1="105.486"
       x2="576.14899"
       y2="313.276"
       id="defitem22"
       gradientUnits="userSpaceOnUse">
      <stop
         style="stop-color:#5a5a5a;stop-opacity:1.0000000;"
         offset="0.0000000"
         id="stop71" />
      <stop
         style="stop-color:#c7c7c7;stop-opacity:1.0000000;"
         offset="1.0000000"
         id="stop72" />
    </linearGradient>
    <linearGradient
       y2="313.276"
       x2="576.14899"
       y1="105.486"
       x1="783.716"
       gradientUnits="userSpaceOnUse"
       id="linearGradient3432"
       xlink:href="#defitem22"
       inkscape:collect="always" />
    <linearGradient
       x1="280.04401"
       y1="418.698"
       x2="128.05499"
       y2="484.716"
       id="defitem21"
       gradientUnits="userSpaceOnUse">
      <stop
         style="stop-color:#666666;stop-opacity:1.0000000;"
         offset="0.0000000"
         id="stop68" />
      <stop
         style="stop-color:#d8d8d8;stop-opacity:1.0000000;"
         offset="1.0000000"
         id="stop69" />
    </linearGradient>
    <linearGradient
       y2="484.716"
       x2="128.05499"
       y1="418.698"
       x1="280.04401"
       gradientUnits="userSpaceOnUse"
       id="linearGradient3430"
       xlink:href="#defitem21"
       inkscape:collect="always" />
    <linearGradient
       x1="129.687"
       y1="636.95398"
       x2="220"
       y2="584.40997"
       id="defitem20"
       gradientUnits="userSpaceOnUse">
      <stop
         style="stop-color:#ffffff;stop-opacity:1.0000000;"
         offset="0.0000000"
         id="stop65" />
      <stop
         style="stop-color:#bbbbbb;stop-opacity:1.0000000;"
         offset="1.0000000"
         id="stop66" />
    </linearGradient>
    <linearGradient
       y2="584.40997"
       x2="220"
       y1="636.95398"
       x1="129.687"
       gradientUnits="userSpaceOnUse"
       id="linearGradient3428"
       xlink:href="#defitem20"
       inkscape:collect="always" />
    <linearGradient
       x1="1048.72"
       y1="629.02802"
       x2="1127.98"
       y2="583.75299"
       id="defitem19"
       gradientUnits="userSpaceOnUse">
      <stop
         style="stop-color:#5e5e5e;stop-opacity:1.0000000;"
         offset="0.0000000"
         id="stop62" />
      <stop
         style="stop-color:#ededed;stop-opacity:1.0000000;"
         offset="1.0000000"
         id="stop63" />
    </linearGradient>
    <linearGradient
       y2="583.75299"
       x2="1127.98"
       y1="629.02802"
       x1="1048.72"
       gradientUnits="userSpaceOnUse"
       id="linearGradient3426"
       xlink:href="#defitem19"
       inkscape:collect="always" />
    <linearGradient
       x1="370.022"
       y1="387.27301"
       x2="581.32397"
       y2="291.97699"
       id="defitem18"
       gradientUnits="userSpaceOnUse">
      <stop
         style="stop-color:#636363;stop-opacity:1.0000000;"
         offset="0.0000000"
         id="stop59" />
      <stop
         style="stop-color:#d6d6d6;stop-opacity:1.0000000;"
         offset="1.0000000"
         id="stop60" />
    </linearGradient>
    <linearGradient
       y2="291.97699"
       x2="581.32397"
       y1="387.27301"
       x1="370.022"
       gradientUnits="userSpaceOnUse"
       id="linearGradient3424"
       xlink:href="#defitem18"
       inkscape:collect="always" />
    <linearGradient
       x1="732.15601"
       y1="351.939"
       x2="909.59399"
       y2="351.939"
       id="defitem17"
       gradientUnits="userSpaceOnUse">
      <stop
         style="stop-color:#676767;stop-opacity:1.0000000;"
         offset="0.0000000"
         id="stop56" />
      <stop
         style="stop-color:#d3d3d3;stop-opacity:1.0000000;"
         offset="1.0000000"
         id="stop57" />
    </linearGradient>
    <linearGradient
       y2="351.939"
       x2="909.59399"
       y1="351.939"
       x1="732.15601"
       gradientUnits="userSpaceOnUse"
       id="linearGradient3422"
       xlink:href="#defitem17"
       inkscape:collect="always" />
    <linearGradient
       x1="1014.43"
       y1="494.71301"
       x2="1073.01"
       y2="494.71301"
       id="defitem16"
       gradientUnits="userSpaceOnUse">
      <stop
         style="stop-color:#666666;stop-opacity:1.0000000;"
         offset="0.0000000"
         id="stop53" />
      <stop
         style="stop-color:#dcdcdc;stop-opacity:1.0000000;"
         offset="1.0000000"
         id="stop54" />
    </linearGradient>
    <linearGradient
       y2="494.71301"
       x2="1073.01"
       y1="494.71301"
       x1="1014.43"
       gradientUnits="userSpaceOnUse"
       id="linearGradient3420"
       xlink:href="#defitem16"
       inkscape:collect="always" />
    <linearGradient
       x1="272.59201"
       y1="452.388"
       x2="193.27699"
       y2="516.37"
       id="defitem15"
       gradientUnits="userSpaceOnUse">
      <stop
         style="stop-color:#6e6e6e;stop-opacity:1.0000000;"
         offset="0.0000000"
         id="stop50" />
      <stop
         style="stop-color:#d8d8d8;stop-opacity:1.0000000;"
         offset="1.0000000"
         id="stop51" />
    </linearGradient>
    <linearGradient
       y2="516.37"
       x2="193.27699"
       y1="452.388"
       x1="272.59201"
       gradientUnits="userSpaceOnUse"
       id="linearGradient3418"
       xlink:href="#defitem15"
       inkscape:collect="always" />
    <radialGradient
       cx="1037.22"
       cy="211.088"
       r="1164.28"
       fx="1037.22"
       fy="211.088"
       id="defitem14"
       gradientUnits="userSpaceOnUse">
      <stop
         style="stop-color:#ffffff;stop-opacity:1.0000000;"
         offset="0.0000000"
         id="stop47" />
      <stop
         style="stop-color:#aaaaaa;stop-opacity:1.0000000;"
         offset="1.0000000"
         id="stop48" />
    </radialGradient>
    <radialGradient
       r="1164.28"
       fy="211.088"
       fx="1037.22"
       cy="211.088"
       cx="1037.22"
       gradientUnits="userSpaceOnUse"
       id="radialGradient3416"
       xlink:href="#defitem14"
       inkscape:collect="always" />
    <linearGradient
       x1="342.64999"
       y1="732.12903"
       x2="379.241"
       y2="686.83002"
       id="defitem13"
       gradientUnits="userSpaceOnUse">
      <stop
         style="stop-color:#ffffff;stop-opacity:1.0000000;"
         offset="0.0000000"
         id="stop44" />
      <stop
         style="stop-color:#989898;stop-opacity:1.0000000;"
         offset="1.0000000"
         id="stop45" />
    </linearGradient>
    <linearGradient
       y2="686.83002"
       x2="379.241"
       y1="732.12903"
       x1="342.64999"
       gradientUnits="userSpaceOnUse"
       id="linearGradient3414"
       xlink:href="#defitem13"
       inkscape:collect="always" />
    <radialGradient
       cx="632.78101"
       cy="484.409"
       r="540.27899"
       fx="632.78101"
       fy="484.409"
       id="defitem12"
       gradientUnits="userSpaceOnUse">
      <stop
         style="stop-color:#ffffff;stop-opacity:1.0000000;"
         offset="0.0000000"
         id="stop41" />
      <stop
         style="stop-color:#ededed;stop-opacity:1.0000000;"
         offset="1.0000000"
         id="stop42" />
    </radialGradient>
    <radialGradient
       r="540.27899"
       fy="484.409"
       fx="632.78101"
       cy="484.409"
       cx="632.78101"
       gradientUnits="userSpaceOnUse"
       id="radialGradient3412"
       xlink:href="#defitem12"
       inkscape:collect="always" />
    <inkscape:perspective
       id="perspective3148"
       inkscape:persp3d-origin="31.999999 : 21.333333 : 1"
       inkscape:vp_z="63.999998 : 32 : 1"
       inkscape:vp_y="0 : 1000 : 0"
       inkscape:vp_x="0 : 32 : 1"
       sodipodi:type="inkscape:persp3d" />
    <linearGradient
       id="linearGradient3682">
      <stop
         id="stop3684"
         offset="0"
         style="stop-color:#ff6d0f;stop-opacity:1;" />
      <stop
         id="stop3686"
         offset="1"
         style="stop-color:#ff1000;stop-opacity:1;" />
    </linearGradient>
    <linearGradient
       id="linearGradient3864">
      <stop
         style="stop-color:#71b2f8;stop-opacity:1;"
         offset="0"
         id="stop3866" />
      <stop
         style="stop-color:#002795;stop-opacity:1;"
         offset="1"
         id="stop3868" />
    </linearGradient>
  </defs>
  <sodipodi:namedview
     inkscape:window-height="744"
     inkscape:window-width="1366"
     inkscape:pageshadow="2"
     inkscape:pageopacity="0.0"
     guidetolerance="10.0"
     gridtolerance="10.0"
     objecttolerance="10.0"
     borderopacity="1.0"
     bordercolor="#666666"
     pagecolor="#ffffff"
     id="base"
     inkscape:window-x="0"
     inkscape:window-y="24"
     inkscape:current-layer="svg2"
     inkscape:document-units="mm"
     showgrid="false"
     inkscape:window-maximized="1"
     inkscape:zoom="0.3783207"
     inkscape:cx="481.67646"
     inkscape:cy="-85.598221" />
  <g
     id="g4"
     style="fill:none;stroke:#000000;stroke-width:0.34999999;stroke-linecap:butt;stroke-linejoin:miter"
     transform="matrix(1.1075804,0,0,1.1075804,-13.938476,-201.37617)" />
  <g
     id="g452"
     style="fill:none;stroke:#000000;stroke-width:0.13;stroke-linecap:butt;stroke-linejoin:miter"
     transform="matrix(1.1075804,0,0,1.1075804,-13.938476,-201.37617)" />
  <path
     id="path553-60-2-3"
     d="m 37.320722,50.562508 0,11.678821"
     inkscape:connector-curvature="0"
     style="fill:none;stroke:#862525;stroke-width:1.96074927;stroke-linecap:round;stroke-linejoin:miter;stroke-miterlimit:4;stroke-dasharray:none;stroke-dashoffset:0;stroke-opacity:1"
     sodipodi:nodetypes="cc" />
  <path
     d="m 37.320722,62.241329 c -6.4e-5,0.135333 0.0053,0.286039 0.02158,0.460218 0.01611,0.174655 0.04243,0.372784 0.09065,0.612705 0.02832,0.140314 0.06465,0.295211 0.114468,0.472238 0.05012,0.177234 0.113541,0.376646 0.203014,0.610603 0.05685,0.147979 0.12407,0.309822 0.206802,0.487069 0.08233,0.176564 0.180377,0.368568 0.289538,0.559899 0.105782,0.18603 0.219154,0.366187 0.328309,0.526429 0.109456,0.160972 0.214564,0.301993 0.313007,0.426899 0.154866,0.196065 0.293782,0.352797 0.420442,0.486662 0.126817,0.133547 0.241338,0.244142 0.347509,0.340619 0.197381,0.17893 0.365819,0.310718 0.517137,0.419406 0.151097,0.108128 0.285011,0.193068 0.407607,0.264027"
     id="path557-6-3-6"
     inkscape:connector-curvature="0"
     style="fill:none;stroke:#862525;stroke-width:1.96074927;stroke-linecap:round;stroke-linejoin:miter;stroke-miterlimit:4;stroke-dasharray:none;stroke-dashoffset:0;stroke-opacity:1" />
  <path
     id="path561-2-7-1"
     d="M 40.580832,67.908103 101.52798,103.22154"
     inkscape:connector-curvature="0"
     style="fill:none;stroke:#862525;stroke-width:1.96074927;stroke-linecap:round;stroke-linejoin:miter;stroke-miterlimit:4;stroke-dasharray:none;stroke-dashoffset:0;stroke-opacity:1" />
  <path
     id="path571-1-9-9"
     d="m 105.76754,100.76511 0.0287,-8.944759"
     inkscape:connector-curvature="0"
     style="fill:#000000;fill-opacity:1;stroke:#862525;stroke-width:1.96060693;stroke-linecap:round;stroke-linejoin:miter;stroke-miterlimit:4;stroke-dasharray:none;stroke-dashoffset:0;stroke-opacity:1"
     sodipodi:nodetypes="cc" />
  <path
     style="fill:none;fill-rule:evenodd;stroke:#862525;stroke-width:1.96060693;stroke-linecap:round;stroke-linejoin:miter;stroke-miterlimit:4;stroke-dasharray:none;stroke-opacity:1"
     d="m 103.51246,84.401398 c 0,0 2.50516,0.643142 2.21387,8.770131"
     id="path4284-7-2-1"
     inkscape:connector-curvature="0"
     sodipodi:nodetypes="cc" />
  <path
     id="path571-1"
     d="m 160.41179,67.841609 0.0287,-8.944759"
     inkscape:connector-curvature="0"
     style="fill:#000000;fill-opacity:1;stroke:#862525;stroke-width:1.96060693;stroke-linecap:round;stroke-linejoin:miter;stroke-miterlimit:4;stroke-dasharray:none;stroke-dashoffset:0;stroke-opacity:1"
     sodipodi:nodetypes="cc" />
  <g
     id="Ortho_-1_-1"
     transform="matrix(0.05542611,0.09600082,-0.09600082,0.05542611,137.98894,83.273115)">
    <g
       transform="scale(1,-1)"
       id="g483"
       style="fill:none;stroke:#000000;stroke-width:12.5;stroke-linecap:butt;stroke-linejoin:miter;stroke-dasharray:0.2, 0.1">
      <path
         id="path485"
         d="M 88.3883,357.217 -618.718,-51.031"
         inkscape:connector-curvature="0"
         style="stroke-width:13.74803599;stroke-linecap:round;stroke-miterlimit:4;stroke-dasharray:54.99214389,27.49607195;stroke-dashoffset:0" />
      <path
         id="path487"
         d="M -795.495,51.031 -618.718,-51.031"
         inkscape:connector-curvature="0"
         style="stroke-width:13.74803573;stroke-linecap:round;stroke-miterlimit:4;stroke-dasharray:41.24410719,41.24410719;stroke-dashoffset:0" />
      <path
         id="path489"
         d="m -618.718,-51.031 0,-816.497"
         inkscape:connector-curvature="0"
         style="stroke-width:13.74803573;stroke-linecap:round;stroke-miterlimit:4;stroke-dasharray:41.24410719,41.24410719;stroke-dashoffset:0" />
    </g>
    <g
       transform="scale(1,-1)"
       id="g551"
       style="fill:none;stroke:#000000;stroke-width:12.5;stroke-linecap:butt;stroke-linejoin:miter;stroke-dasharray:0.02, 0.1" />
    <path
       style="fill:#0088aa;fill-opacity:0.74213837;fill-rule:evenodd;stroke:#000000;stroke-width:2.3518517px;stroke-linecap:butt;stroke-linejoin:miter;stroke-opacity:1"
       d="m -781.45893,767.22941 161.24076,92.3317 701.709928,-399.7109 -171.467942,-97.9631 z"
       id="path5114"
       inkscape:connector-curvature="0"
       sodipodi:nodetypes="ccccc" />
    <g
       transform="scale(1,-1)"
       id="g655"
       style="fill:none;stroke:#000000;stroke-width:12.5;stroke-linecap:butt;stroke-linejoin:miter">
      <path
         id="path657"
         d="M 88.3883,-459.279 -618.718,-867.528"
         inkscape:connector-curvature="0"
         style="stroke-width:18.49427605;stroke-linecap:round;stroke-miterlimit:4;stroke-dasharray:none;stroke-dashoffset:0" />
      <path
         id="path659"
         d="M -88.3883,-357.217 -795.495,-765.466"
         inkscape:connector-curvature="0"
         style="stroke-width:18.49427605;stroke-miterlimit:4;stroke-dasharray:none;stroke-dashoffset:0" />
      <path
         id="path661"
         d="M 88.3883,-459.279 -88.3883,-357.217"
         inkscape:connector-curvature="0"
         style="stroke-width:18.49427605;stroke-linecap:round;stroke-miterlimit:4;stroke-dasharray:none;stroke-dashoffset:0" />
      <path
         id="path663"
         d="m -618.718,-867.528 -176.777,102.062"
         inkscape:connector-curvature="0"
         style="stroke-width:18.49427605;stroke-linecap:round;stroke-miterlimit:4;stroke-dasharray:none;stroke-dashoffset:0" />
      <path
         id="path665"
         d="M -88.3883,459.279 -795.495,51.031"
         inkscape:connector-curvature="0"
         style="stroke-width:18.49427605;stroke-linecap:round;stroke-miterlimit:4;stroke-dasharray:none;stroke-dashoffset:0" />
      <path
         id="7"
         d="m -795.495,-765.466 c 0,272.16567 0,544.33133 0,816.497"
         inkscape:connector-curvature="0"
         style="stroke-width:18.49427605;stroke-linecap:round;stroke-miterlimit:4;stroke-dasharray:none;stroke-dashoffset:0"
         sodipodi:nodetypes="cc" />
      <path
         id="path670"
         d="M -88.3883,459.279 88.3883,357.217"
         inkscape:connector-curvature="0"
         style="stroke-width:18.49427605;stroke-linecap:round;stroke-miterlimit:4;stroke-dasharray:none;stroke-dashoffset:0" />
      <path
         id="path673"
         d="m 88.3883,357.217 0,-816.496"
         inkscape:connector-curvature="0"
         style="stroke-width:18.49427605;stroke-linecap:round;stroke-miterlimit:4;stroke-dasharray:none;stroke-dashoffset:0" />
      <path
         id="path667"
         d="m -88.3883,-357.217 0,816.496"
         inkscape:connector-curvature="0"
         style="stroke-width:18.49427605;stroke-linecap:round;stroke-miterlimit:4;stroke-dasharray:none;stroke-dashoffset:0" />
    </g>
    <path
       style="opacity:0.71199999;fill:#483737;fill-opacity:0;stroke:none;stroke-width:3.54330707;stroke-linecap:round;stroke-linejoin:round;stroke-miterlimit:4;stroke-dasharray:10.62992126, 10.62992126;stroke-dashoffset:0;stroke-opacity:1"
       d="M 426.43879,536.60277 C 314.95119,472.26971 297.15214,461.7924 294.40712,458.88311 l -3.17273,-3.3626 5.48558,-3.13639 c 4.44269,-2.54012 5.48559,-3.43346 5.48559,-4.69894 0,-0.94968 -0.44383,-1.64802 -1.13157,-1.78047 -1.09182,-0.21026 -10.34538,4.74485 -11.16556,5.97896 -0.22136,0.33306 -0.96477,-0.68231 -1.65204,-2.25638 -1.11973,-2.56455 -1.27041,-4.97346 -1.45003,-23.18201 -0.11025,-11.17603 -0.0447,-20.32006 0.14563,-20.32006 0.19034,0 9.44253,5.24544 20.56041,11.65654 14.2434,8.21342 20.00734,11.86351 19.51361,12.35724 -1.05133,1.05134 -0.84344,3.06634 0.36418,3.52975 0.58568,0.22475 1.87231,-0.0683 2.85917,-0.65128 l 1.79429,-1.05991 111.79224,64.5429 111.79224,64.54291 0,24.96726 c 0,13.73199 -0.0743,24.96319 -0.1652,24.95823 -0.0909,-0.005 -58.15173,-33.46971 -129.02414,-74.36609 z M 315.81874,441.40041 c 4.29482,-2.47725 5.25358,-3.31735 5.09053,-4.4605 -0.11786,-0.82631 -0.74713,-1.47742 -1.52252,-1.57537 -1.97605,-0.24962 -11.56426,5.56907 -11.56426,7.01788 0,2.9287 1.54523,2.73893 7.99625,-0.98201 z"
       id="path5096"
       inkscape:connector-curvature="0"
       transform="matrix(1.1759259,-2.0367634,2.0367634,1.1759259,-1884.1755,837.09102)" />
    <path
       style="opacity:0.71199999;fill:#483737;fill-opacity:0;stroke:none;stroke-width:3.54330707;stroke-linecap:round;stroke-linejoin:round;stroke-miterlimit:4;stroke-dasharray:10.62992126, 10.62992126;stroke-dashoffset:0;stroke-opacity:1"
       d="M 426.43879,536.60277 C 314.95119,472.26971 297.15214,461.7924 294.40712,458.88311 l -3.17273,-3.3626 5.48558,-3.13639 c 4.44269,-2.54012 5.48559,-3.43346 5.48559,-4.69894 0,-0.94968 -0.44383,-1.64802 -1.13157,-1.78047 -1.09182,-0.21026 -10.34538,4.74485 -11.16556,5.97896 -0.22136,0.33306 -0.96477,-0.68231 -1.65204,-2.25638 -1.11973,-2.56455 -1.27041,-4.97346 -1.45003,-23.18201 -0.11025,-11.17603 -0.0447,-20.32006 0.14563,-20.32006 0.19034,0 9.44253,5.24544 20.56041,11.65654 14.2434,8.21342 20.00734,11.86351 19.51361,12.35724 -1.05133,1.05134 -0.84344,3.06634 0.36418,3.52975 0.58568,0.22475 1.87231,-0.0683 2.85917,-0.65128 l 1.79429,-1.05991 111.79224,64.5429 111.79224,64.54291 0,24.96726 c 0,13.73199 -0.0743,24.96319 -0.1652,24.95823 -0.0909,-0.005 -58.15173,-33.46971 -129.02414,-74.36609 z M 315.81874,441.40041 c 4.29482,-2.47725 5.25358,-3.31735 5.09053,-4.4605 -0.11786,-0.82631 -0.74713,-1.47742 -1.52252,-1.57537 -1.97605,-0.24962 -11.56426,5.56907 -11.56426,7.01788 0,2.9287 1.54523,2.73893 7.99625,-0.98201 z"
       id="path5098"
       inkscape:connector-curvature="0"
       transform="matrix(1.1759259,-2.0367634,2.0367634,1.1759259,-1884.1755,837.09102)" />
    <path
       style="opacity:0.71199999;fill:#483737;fill-opacity:0;stroke:none;stroke-width:3.54330707;stroke-linecap:round;stroke-linejoin:round;stroke-miterlimit:4;stroke-dasharray:10.62992126, 10.62992126;stroke-dashoffset:0;stroke-opacity:1"
       d="M 426.43879,536.60277 C 314.95119,472.26971 297.15214,461.7924 294.40712,458.88311 l -3.17273,-3.3626 5.48558,-3.13639 c 4.44269,-2.54012 5.48559,-3.43346 5.48559,-4.69894 0,-0.94968 -0.44383,-1.64802 -1.13157,-1.78047 -1.09182,-0.21026 -10.34538,4.74485 -11.16556,5.97896 -0.22136,0.33306 -0.96477,-0.68231 -1.65204,-2.25638 -1.11973,-2.56455 -1.27041,-4.97346 -1.45003,-23.18201 -0.11025,-11.17603 -0.0447,-20.32006 0.14563,-20.32006 0.19034,0 9.44253,5.24544 20.56041,11.65654 14.2434,8.21342 20.00734,11.86351 19.51361,12.35724 -1.05133,1.05134 -0.84344,3.06634 0.36418,3.52975 0.58568,0.22475 1.87231,-0.0683 2.85917,-0.65128 l 1.79429,-1.05991 111.79224,64.5429 111.79224,64.54291 0,24.96726 c 0,13.73199 -0.0743,24.96319 -0.1652,24.95823 -0.0909,-0.005 -58.15173,-33.46971 -129.02414,-74.36609 z M 315.81874,441.40041 c 4.29482,-2.47725 5.25358,-3.31735 5.09053,-4.4605 -0.11786,-0.82631 -0.74713,-1.47742 -1.52252,-1.57537 -1.97605,-0.24962 -11.56426,5.56907 -11.56426,7.01788 0,2.9287 1.54523,2.73893 7.99625,-0.98201 z"
       id="path5100"
       inkscape:connector-curvature="0"
       transform="matrix(1.1759259,-2.0367634,2.0367634,1.1759259,-1884.1755,837.09102)" />
    <path
       style="opacity:0.71199999;fill:#483737;fill-opacity:0;stroke:none;stroke-width:3.54330707;stroke-linecap:round;stroke-linejoin:round;stroke-miterlimit:4;stroke-dasharray:10.62992126, 10.62992126;stroke-dashoffset:0;stroke-opacity:1"
       d="M 426.43879,536.60277 C 314.95119,472.26971 297.15214,461.7924 294.40712,458.88311 l -3.17273,-3.3626 5.48558,-3.13639 c 4.44269,-2.54012 5.48559,-3.43346 5.48559,-4.69894 0,-0.94968 -0.44383,-1.64802 -1.13157,-1.78047 -1.09182,-0.21026 -10.34538,4.74485 -11.16556,5.97896 -0.22136,0.33306 -0.96477,-0.68231 -1.65204,-2.25638 -1.11973,-2.56455 -1.27041,-4.97346 -1.45003,-23.18201 -0.11025,-11.17603 -0.0447,-20.32006 0.14563,-20.32006 0.19034,0 9.44253,5.24544 20.56041,11.65654 14.2434,8.21342 20.00734,11.86351 19.51361,12.35724 -1.05133,1.05134 -0.84344,3.06634 0.36418,3.52975 0.58568,0.22475 1.87231,-0.0683 2.85917,-0.65128 l 1.79429,-1.05991 111.79224,64.5429 111.79224,64.54291 0,24.96726 c 0,13.73199 -0.0743,24.96319 -0.1652,24.95823 -0.0909,-0.005 -58.15173,-33.46971 -129.02414,-74.36609 z M 315.81874,441.40041 c 4.29482,-2.47725 5.25358,-3.31735 5.09053,-4.4605 -0.11786,-0.82631 -0.74713,-1.47742 -1.52252,-1.57537 -1.97605,-0.24962 -11.56426,5.56907 -11.56426,7.01788 0,2.9287 1.54523,2.73893 7.99625,-0.98201 z"
       id="path5102"
       inkscape:connector-curvature="0"
       transform="matrix(1.1759259,-2.0367634,2.0367634,1.1759259,-1884.1755,837.09102)" />
    <path
       style="opacity:0.71199999;fill:#483737;fill-opacity:0;stroke:none;stroke-width:3.54330707;stroke-linecap:round;stroke-linejoin:round;stroke-miterlimit:4;stroke-dasharray:10.62992126, 10.62992126;stroke-dashoffset:0;stroke-opacity:1"
       d="m 409.06723,556.31079 c -119.32805,-68.8937 -145.98981,-84.53314 -144.92225,-85.0095 1.79645,-0.80159 2.29363,-2.43438 1.10363,-3.62438 -0.79887,-0.79886 -1.31626,-0.84293 -2.66754,-0.22725 l -1.67645,0.76384 0,-38.71951 0,-38.71951 1.48683,0.94472 c 0.81776,0.5196 5.27826,3.11778 9.91223,5.77372 l 8.42539,4.829 0,20.92645 c 0,23.13223 0.28635,25.39546 4.13912,32.71456 4.65763,8.84809 -2.49632,4.42262 139.91856,86.55419 71.78104,41.39658 130.59252,75.32837 130.69219,75.40399 0.0997,0.0756 0.0997,5.24003 0,11.47646 l -0.18122,11.33897 -146.23049,-84.42575 z M 278.85559,462.73573 c 3.88423,-2.29411 4.84715,-3.17842 4.84715,-4.45144 0,-2.43059 -1.63312,-2.26208 -6.7678,0.69828 -5.32006,3.06724 -6.31016,4.02496 -5.72839,5.54103 0.65345,1.70285 2.44967,1.28301 7.64904,-1.78787 z"
       id="path5104"
       inkscape:connector-curvature="0"
       transform="matrix(1.1759259,-2.0367634,2.0367634,1.1759259,-1884.1755,837.09102)" />
  </g>
  <g
     inkscape:groupmode="layer"
     id="layer1"
     inkscape:label="rebar"
     style="display:none" />
  <path
     id="path553-60"
     d="m 91.964948,17.639007 0,11.678821"
     inkscape:connector-curvature="0"
     style="fill:none;stroke:#862525;stroke-width:1.96074927;stroke-linecap:round;stroke-linejoin:miter;stroke-miterlimit:4;stroke-dasharray:none;stroke-dashoffset:0;stroke-opacity:1"
     sodipodi:nodetypes="cc" />
  <path
     d="m 91.964948,29.317828 c -6.4e-5,0.135333 0.0053,0.286039 0.02158,0.460218 0.01611,0.174655 0.04243,0.372784 0.09065,0.612705 0.02832,0.140314 0.06465,0.295211 0.114468,0.472238 0.05012,0.177234 0.113541,0.376646 0.203014,0.610603 0.05685,0.147979 0.12407,0.309822 0.206802,0.487069 0.08233,0.176564 0.180377,0.368568 0.289538,0.559899 0.105782,0.18603 0.219154,0.366187 0.328309,0.526429 0.109456,0.160972 0.214564,0.301993 0.313007,0.426899 0.154866,0.196065 0.293782,0.352797 0.420442,0.486662 0.126817,0.133547 0.241338,0.244142 0.347509,0.340619 0.197381,0.17893 0.365819,0.310718 0.517137,0.419406 0.151097,0.108128 0.285011,0.193068 0.407607,0.264027"
     id="path557-6"
     inkscape:connector-curvature="0"
     style="fill:none;stroke:#862525;stroke-width:1.96074927;stroke-linecap:round;stroke-linejoin:miter;stroke-miterlimit:4;stroke-dasharray:none;stroke-dashoffset:0;stroke-opacity:1" />
  <path
     id="path561-3-8"
     d="m 97.64501,16.416482 60.94714,35.313464"
     inkscape:connector-curvature="0"
     style="fill:none;stroke:#862525;stroke-width:1.96060693;stroke-linecap:round;stroke-linejoin:miter;stroke-miterlimit:4;stroke-dasharray:none;stroke-dashoffset:0;stroke-opacity:1" />
  <path
     style="fill:none;fill-rule:evenodd;stroke:#862525;stroke-width:1.96060693;stroke-linecap:butt;stroke-linejoin:miter;stroke-miterlimit:4;stroke-dasharray:none;stroke-opacity:1"
     d="m 98.016054,16.603549 c 0,0 -6.170544,-4.423362 -6.097032,1.40566 l 0.04117,3.266082"
     id="path4286-9"
     inkscape:connector-curvature="0"
     sodipodi:nodetypes="csc" />
  <path
     style="fill:none;fill-rule:evenodd;stroke:#862525;stroke-width:1.96060693;stroke-linecap:round;stroke-linejoin:miter;stroke-miterlimit:4;stroke-dasharray:none;stroke-opacity:1"
     d="m 91.915452,17.301517 0.297439,1.659789 3.829044,5.468597"
     id="path4288-2"
     inkscape:connector-curvature="0"
     sodipodi:nodetypes="ccc" />
  <path
     style="fill:none;fill-rule:evenodd;stroke:#862525;stroke-width:1.96060693;stroke-linecap:round;stroke-linejoin:miter;stroke-miterlimit:4;stroke-dasharray:none;stroke-dashoffset:0;stroke-opacity:1"
     d="m 94.595433,14.997065 1.739178,0.884361 3.952739,6.064466"
     id="path4290-0"
     inkscape:connector-curvature="0"
     sodipodi:nodetypes="ccc" />
  <path
     id="path553-60-2"
     d="m 64.978427,33.629188 0,11.678821"
     inkscape:connector-curvature="0"
     style="fill:none;stroke:#862525;stroke-width:1.96074927;stroke-linecap:round;stroke-linejoin:miter;stroke-miterlimit:4;stroke-dasharray:none;stroke-dashoffset:0;stroke-opacity:1"
     sodipodi:nodetypes="cc" />
  <path
     d="m 64.978427,45.308009 c -6.4e-5,0.135333 0.0053,0.286039 0.02158,0.460218 0.01611,0.174655 0.04243,0.372784 0.09065,0.612705 0.02832,0.140314 0.06465,0.295211 0.114468,0.472238 0.05012,0.177234 0.113541,0.376646 0.203014,0.610603 0.05685,0.147979 0.12407,0.309822 0.206802,0.487069 0.08233,0.176564 0.180377,0.368568 0.289538,0.559899 0.105782,0.18603 0.219154,0.366187 0.328309,0.526429 0.109456,0.160972 0.214564,0.301993 0.313007,0.426899 0.154866,0.196065 0.293782,0.352797 0.420442,0.486662 0.126817,0.133547 0.241338,0.244142 0.347509,0.340619 0.197381,0.17893 0.365819,0.310718 0.517137,0.419406 0.151097,0.108128 0.285011,0.193068 0.407607,0.264027"
     id="path557-6-3"
     inkscape:connector-curvature="0"
     style="fill:none;stroke:#862525;stroke-width:1.96074927;stroke-linecap:round;stroke-linejoin:miter;stroke-miterlimit:4;stroke-dasharray:none;stroke-dashoffset:0;stroke-opacity:1" />
  <path
     d="m 129.18562,86.288242 c 0.31769,0.184195 0.63592,0.317835 0.94129,0.401004 0.3531,0.09636 0.68794,0.12595 0.99526,0.101422 0.35864,-0.02887 0.68137,-0.129052 0.96881,-0.288945 0.29007,-0.162058 0.5456,-0.385696 0.75791,-0.676825 0.18316,-0.251525 0.33329,-0.55536 0.43427,-0.910808 0.0919,-0.322992 0.14213,-0.688359 0.14202,-1.082299"
     id="path567-6-5"
     inkscape:connector-curvature="0"
     style="fill:none;stroke:#862525;stroke-width:1.96074927;stroke-linecap:round;stroke-linejoin:miter;stroke-miterlimit:4;stroke-dasharray:none;stroke-dashoffset:0;stroke-opacity:1" />
  <path
     id="path561-3-8-2"
     d="M 70.658489,32.406663 131.60554,67.720127"
     inkscape:connector-curvature="0"
     style="fill:none;stroke:#862525;stroke-width:1.96060693;stroke-linecap:round;stroke-linejoin:miter;stroke-miterlimit:4;stroke-dasharray:none;stroke-dashoffset:0;stroke-opacity:1" />
  <path
     style="fill:none;fill-rule:evenodd;stroke:#862525;stroke-width:1.96060693;stroke-linecap:butt;stroke-linejoin:miter;stroke-miterlimit:4;stroke-dasharray:none;stroke-opacity:1"
     d="m 71.029533,32.59373 c 0,0 -6.170544,-4.423362 -6.097032,1.40566 l 0.04117,3.266082"
     id="path4286-9-8"
     inkscape:connector-curvature="0"
     sodipodi:nodetypes="csc" />
  <path
     style="fill:none;fill-rule:evenodd;stroke:#862525;stroke-width:1.96060693;stroke-linecap:round;stroke-linejoin:miter;stroke-miterlimit:4;stroke-dasharray:none;stroke-opacity:1"
     d="m 64.928931,33.291698 0.297439,1.659789 3.829044,5.468596"
     id="path4288-2-9"
     inkscape:connector-curvature="0"
     sodipodi:nodetypes="ccc" />
  <path
     style="fill:none;fill-rule:evenodd;stroke:#862525;stroke-width:1.96060693;stroke-linecap:round;stroke-linejoin:miter;stroke-miterlimit:4;stroke-dasharray:none;stroke-dashoffset:0;stroke-opacity:1"
     d="m 67.608912,30.987246 1.739178,0.884361 3.952735,6.064466"
     id="path4290-0-7"
     inkscape:connector-curvature="0"
     sodipodi:nodetypes="ccc" />
  <path
     d="m 101.52798,103.22154 c 0.31769,0.18419 0.63592,0.31783 0.94129,0.401 0.3531,0.0964 0.68794,0.12595 0.99526,0.10142 0.35864,-0.0289 0.68137,-0.12905 0.96881,-0.28894 0.29007,-0.16205 0.5456,-0.38569 0.75791,-0.67682 0.18316,-0.25152 0.33329,-0.55535 0.43427,-0.9108 0.0919,-0.32299 0.14213,-0.68836 0.14202,-1.08229"
     id="path567-6-5-2"
     inkscape:connector-curvature="0"
     style="fill:none;stroke:#862525;stroke-width:1.96074927;stroke-linecap:round;stroke-linejoin:miter;stroke-miterlimit:4;stroke-dasharray:none;stroke-dashoffset:0;stroke-opacity:1" />
  <path
     id="path561-3-8-2-3"
     d="M 43.000784,49.339983 103.9479,84.653447"
     inkscape:connector-curvature="0"
     style="fill:none;stroke:#862525;stroke-width:1.96060693;stroke-linecap:round;stroke-linejoin:miter;stroke-miterlimit:4;stroke-dasharray:none;stroke-dashoffset:0;stroke-opacity:1" />
  <path
     style="fill:none;fill-rule:evenodd;stroke:#862525;stroke-width:1.96060693;stroke-linecap:butt;stroke-linejoin:miter;stroke-miterlimit:4;stroke-dasharray:none;stroke-opacity:1"
     d="m 43.371828,49.52705 c 0,0 -6.170544,-4.423362 -6.097032,1.40566 l 0.04117,3.266082"
     id="path4286-9-8-9"
     inkscape:connector-curvature="0"
     sodipodi:nodetypes="csc" />
  <path
     style="fill:none;fill-rule:evenodd;stroke:#862525;stroke-width:1.96060693;stroke-linecap:round;stroke-linejoin:miter;stroke-miterlimit:4;stroke-dasharray:none;stroke-opacity:1"
     d="m 37.271226,50.225018 0.297439,1.659789 3.829044,5.468596"
     id="path4288-2-9-4"
     inkscape:connector-curvature="0"
     sodipodi:nodetypes="ccc" />
  <path
     style="fill:none;fill-rule:evenodd;stroke:#862525;stroke-width:1.96060693;stroke-linecap:round;stroke-linejoin:miter;stroke-miterlimit:4;stroke-dasharray:none;stroke-dashoffset:0;stroke-opacity:1"
     d="m 39.951207,47.920566 1.739178,0.884361 3.952735,6.064466"
     id="path4290-0-7-7"
     inkscape:connector-curvature="0"
     sodipodi:nodetypes="ccc" />
</svg>
