<?xml version="1.0" encoding="UTF-8" standalone="no"?>
<svg
   xmlns:dc="http://purl.org/dc/elements/1.1/"
   xmlns:cc="http://creativecommons.org/ns#"
   xmlns:rdf="http://www.w3.org/1999/02/22-rdf-syntax-ns#"
   xmlns:svg="http://www.w3.org/2000/svg"
   xmlns="http://www.w3.org/2000/svg"
   xmlns:xlink="http://www.w3.org/1999/xlink"
   xmlns:sodipodi="http://sodipodi.sourceforge.net/DTD/sodipodi-0.dtd"
   xmlns:inkscape="http://www.inkscape.org/namespaces/inkscape"
   width="200mm"
   height="120mm"
   viewBox="0 0 200 120"
   version="1.1"
   id="svg2"
   sodipodi:version="0.32"
   inkscape:version="0.91 r13725"
   sodipodi:docname="UShapeRebar.svg"
   inkscape:output_extension="org.inkscape.output.svg.inkscape">
  <!-- Working space 10 10 410 287 -->
  <!-- Title block 220 227 410 287 -->
  <metadata
     id="metadata849">
    <rdf:RDF>
      <cc:Work
         rdf:about="">
        <dc:format>image/svg+xml</dc:format>
        <dc:type
           rdf:resource="http://purl.org/dc/dcmitype/StillImage" />
        <dc:title />
      </cc:Work>
    </rdf:RDF>
  </metadata>
  <defs
     id="defs847">
    <linearGradient
       x1="649.42902"
       y1="807.466"
       x2="655.35199"
       y2="485.909"
       id="defitem29"
       gradientUnits="userSpaceOnUse">
      <stop
         style="stop-color:#ffffff;stop-opacity:1.0000000;"
         offset="0.0000000"
         id="stop92" />
      <stop
         style="stop-color:#ffffff;stop-opacity:0.13756600;"
         offset="1.0000000"
         id="stop93" />
    </linearGradient>
    <linearGradient
       y2="485.909"
       x2="655.35199"
       y1="807.466"
       x1="649.42902"
       gradientUnits="userSpaceOnUse"
       id="linearGradient3448"
       xlink:href="#defitem29"
       inkscape:collect="always" />
    <radialGradient
       cx="1049.72"
       cy="345.56"
       r="1202.15"
       fx="1049.72"
       fy="345.56"
       id="defitem28"
       gradientUnits="userSpaceOnUse">
      <stop
         style="stop-color:#ffffff;stop-opacity:1.0000000;"
         offset="0.0000000"
         id="stop89" />
      <stop
         style="stop-color:#a8a8a8;stop-opacity:1.0000000;"
         offset="1.0000000"
         id="stop90" />
    </radialGradient>
    <radialGradient
       r="1202.15"
       fy="64.844765"
       fx="1089.4004"
       cy="64.845284"
       cx="1092.7045"
       gradientUnits="userSpaceOnUse"
       id="radialGradient3446"
       xlink:href="#defitem28"
       inkscape:collect="always" />
    <linearGradient
       x1="287.5"
       y1="636.70697"
       x2="980"
       y2="636.70697"
       id="defitem30"
       gradientUnits="userSpaceOnUse">
      <stop
         style="stop-color:#464646;stop-opacity:1.0000000;"
         offset="0.0000000"
         id="stop95" />
      <stop
         style="stop-color:#c2c2c2;stop-opacity:1.0000000;"
         offset="1.0000000"
         id="stop96" />
    </linearGradient>
    <linearGradient
       y2="636.70697"
       x2="980"
       y1="636.70697"
       x1="287.5"
       gradientTransform="matrix(1,0,0,1.016038,0,-11.73855)"
       gradientUnits="userSpaceOnUse"
       id="linearGradient3444"
       xlink:href="#defitem30"
       inkscape:collect="always" />
    <linearGradient
       x1="921.091"
       y1="403.18799"
       x2="985.98199"
       y2="317.44699"
       id="defitem27"
       gradientUnits="userSpaceOnUse">
      <stop
         style="stop-color:#7e7e7e;stop-opacity:1.0000000;"
         offset="0.0000000"
         id="stop86" />
      <stop
         style="stop-color:#e5e5e5;stop-opacity:1.0000000;"
         offset="1.0000000"
         id="stop87" />
    </linearGradient>
    <linearGradient
       y2="317.44699"
       x2="985.98199"
       y1="403.18799"
       x1="921.091"
       gradientUnits="userSpaceOnUse"
       id="linearGradient3442"
       xlink:href="#defitem27"
       inkscape:collect="always" />
    <linearGradient
       x1="530.76099"
       y1="346.30399"
       x2="293.37"
       y2="360.27499"
       id="defitem26"
       gradientUnits="userSpaceOnUse">
      <stop
         style="stop-color:#5f5f5f;stop-opacity:1.0000000;"
         offset="0.0000000"
         id="stop83" />
      <stop
         style="stop-color:#e5e5e5;stop-opacity:1.0000000;"
         offset="1.0000000"
         id="stop84" />
    </linearGradient>
    <linearGradient
       y2="360.27499"
       x2="293.37"
       y1="346.30399"
       x1="530.76099"
       gradientUnits="userSpaceOnUse"
       id="linearGradient3440"
       xlink:href="#defitem26"
       inkscape:collect="always" />
    <linearGradient
       x1="164.013"
       y1="412.91901"
       x2="308.75"
       y2="337.60999"
       id="defitem25"
       gradientUnits="userSpaceOnUse">
      <stop
         style="stop-color:#ffffff;stop-opacity:1.0000000;"
         offset="0.0000000"
         id="stop80" />
      <stop
         style="stop-color:#bfbfbf;stop-opacity:1.0000000;"
         offset="1.0000000"
         id="stop81" />
    </linearGradient>
    <linearGradient
       y2="337.60999"
       x2="308.75"
       y1="412.91901"
       x1="164.013"
       gradientUnits="userSpaceOnUse"
       id="linearGradient3438"
       xlink:href="#defitem25"
       inkscape:collect="always" />
    <linearGradient
       x1="1094.25"
       y1="270.854"
       x2="992.48901"
       y2="380.47198"
       id="defitem24"
       gradientUnits="userSpaceOnUse">
      <stop
         style="stop-color:#6a6a6a;stop-opacity:1.0000000;"
         offset="0.0000000"
         id="stop77" />
      <stop
         style="stop-color:#e6e6e6;stop-opacity:1.0000000;"
         offset="1.0000000"
         id="stop78" />
    </linearGradient>
    <linearGradient
       y2="380.47198"
       x2="992.48901"
       y1="270.854"
       x1="1094.25"
       gradientUnits="userSpaceOnUse"
       id="linearGradient3436"
       xlink:href="#defitem24"
       inkscape:collect="always" />
    <linearGradient
       x1="1170.91"
       y1="476.465"
       x2="1049.84"
       y2="549.37799"
       id="defitem23"
       gradientUnits="userSpaceOnUse">
      <stop
         style="stop-color:#5f5f5f;stop-opacity:1.0000000;"
         offset="0.0000000"
         id="stop74" />
      <stop
         style="stop-color:#ebebeb;stop-opacity:1.0000000;"
         offset="1.0000000"
         id="stop75" />
    </linearGradient>
    <linearGradient
       y2="549.37799"
       x2="1049.84"
       y1="476.465"
       x1="1170.91"
       gradientUnits="userSpaceOnUse"
       id="linearGradient3434"
       xlink:href="#defitem23"
       inkscape:collect="always" />
    <linearGradient
       x1="783.716"
       y1="105.486"
       x2="576.14899"
       y2="313.276"
       id="defitem22"
       gradientUnits="userSpaceOnUse">
      <stop
         style="stop-color:#5a5a5a;stop-opacity:1.0000000;"
         offset="0.0000000"
         id="stop71" />
      <stop
         style="stop-color:#c7c7c7;stop-opacity:1.0000000;"
         offset="1.0000000"
         id="stop72" />
    </linearGradient>
    <linearGradient
       y2="313.276"
       x2="576.14899"
       y1="105.486"
       x1="783.716"
       gradientUnits="userSpaceOnUse"
       id="linearGradient3432"
       xlink:href="#defitem22"
       inkscape:collect="always" />
    <linearGradient
       x1="280.04401"
       y1="418.698"
       x2="128.05499"
       y2="484.716"
       id="defitem21"
       gradientUnits="userSpaceOnUse">
      <stop
         style="stop-color:#666666;stop-opacity:1.0000000;"
         offset="0.0000000"
         id="stop68" />
      <stop
         style="stop-color:#d8d8d8;stop-opacity:1.0000000;"
         offset="1.0000000"
         id="stop69" />
    </linearGradient>
    <linearGradient
       y2="484.716"
       x2="128.05499"
       y1="418.698"
       x1="280.04401"
       gradientUnits="userSpaceOnUse"
       id="linearGradient3430"
       xlink:href="#defitem21"
       inkscape:collect="always" />
    <linearGradient
       x1="129.687"
       y1="636.95398"
       x2="220"
       y2="584.40997"
       id="defitem20"
       gradientUnits="userSpaceOnUse">
      <stop
         style="stop-color:#ffffff;stop-opacity:1.0000000;"
         offset="0.0000000"
         id="stop65" />
      <stop
         style="stop-color:#bbbbbb;stop-opacity:1.0000000;"
         offset="1.0000000"
         id="stop66" />
    </linearGradient>
    <linearGradient
       y2="584.40997"
       x2="220"
       y1="636.95398"
       x1="129.687"
       gradientUnits="userSpaceOnUse"
       id="linearGradient3428"
       xlink:href="#defitem20"
       inkscape:collect="always" />
    <linearGradient
       x1="1048.72"
       y1="629.02802"
       x2="1127.98"
       y2="583.75299"
       id="defitem19"
       gradientUnits="userSpaceOnUse">
      <stop
         style="stop-color:#5e5e5e;stop-opacity:1.0000000;"
         offset="0.0000000"
         id="stop62" />
      <stop
         style="stop-color:#ededed;stop-opacity:1.0000000;"
         offset="1.0000000"
         id="stop63" />
    </linearGradient>
    <linearGradient
       y2="583.75299"
       x2="1127.98"
       y1="629.02802"
       x1="1048.72"
       gradientUnits="userSpaceOnUse"
       id="linearGradient3426"
       xlink:href="#defitem19"
       inkscape:collect="always" />
    <linearGradient
       x1="370.022"
       y1="387.27301"
       x2="581.32397"
       y2="291.97699"
       id="defitem18"
       gradientUnits="userSpaceOnUse">
      <stop
         style="stop-color:#636363;stop-opacity:1.0000000;"
         offset="0.0000000"
         id="stop59" />
      <stop
         style="stop-color:#d6d6d6;stop-opacity:1.0000000;"
         offset="1.0000000"
         id="stop60" />
    </linearGradient>
    <linearGradient
       y2="291.97699"
       x2="581.32397"
       y1="387.27301"
       x1="370.022"
       gradientUnits="userSpaceOnUse"
       id="linearGradient3424"
       xlink:href="#defitem18"
       inkscape:collect="always" />
    <linearGradient
       x1="732.15601"
       y1="351.939"
       x2="909.59399"
       y2="351.939"
       id="defitem17"
       gradientUnits="userSpaceOnUse">
      <stop
         style="stop-color:#676767;stop-opacity:1.0000000;"
         offset="0.0000000"
         id="stop56" />
      <stop
         style="stop-color:#d3d3d3;stop-opacity:1.0000000;"
         offset="1.0000000"
         id="stop57" />
    </linearGradient>
    <linearGradient
       y2="351.939"
       x2="909.59399"
       y1="351.939"
       x1="732.15601"
       gradientUnits="userSpaceOnUse"
       id="linearGradient3422"
       xlink:href="#defitem17"
       inkscape:collect="always" />
    <linearGradient
       x1="1014.43"
       y1="494.71301"
       x2="1073.01"
       y2="494.71301"
       id="defitem16"
       gradientUnits="userSpaceOnUse">
      <stop
         style="stop-color:#666666;stop-opacity:1.0000000;"
         offset="0.0000000"
         id="stop53" />
      <stop
         style="stop-color:#dcdcdc;stop-opacity:1.0000000;"
         offset="1.0000000"
         id="stop54" />
    </linearGradient>
    <linearGradient
       y2="494.71301"
       x2="1073.01"
       y1="494.71301"
       x1="1014.43"
       gradientUnits="userSpaceOnUse"
       id="linearGradient3420"
       xlink:href="#defitem16"
       inkscape:collect="always" />
    <linearGradient
       x1="272.59201"
       y1="452.388"
       x2="193.27699"
       y2="516.37"
       id="defitem15"
       gradientUnits="userSpaceOnUse">
      <stop
         style="stop-color:#6e6e6e;stop-opacity:1.0000000;"
         offset="0.0000000"
         id="stop50" />
      <stop
         style="stop-color:#d8d8d8;stop-opacity:1.0000000;"
         offset="1.0000000"
         id="stop51" />
    </linearGradient>
    <linearGradient
       y2="516.37"
       x2="193.27699"
       y1="452.388"
       x1="272.59201"
       gradientUnits="userSpaceOnUse"
       id="linearGradient3418"
       xlink:href="#defitem15"
       inkscape:collect="always" />
    <radialGradient
       cx="1037.22"
       cy="211.088"
       r="1164.28"
       fx="1037.22"
       fy="211.088"
       id="defitem14"
       gradientUnits="userSpaceOnUse">
      <stop
         style="stop-color:#ffffff;stop-opacity:1.0000000;"
         offset="0.0000000"
         id="stop47" />
      <stop
         style="stop-color:#aaaaaa;stop-opacity:1.0000000;"
         offset="1.0000000"
         id="stop48" />
    </radialGradient>
    <radialGradient
       r="1164.28"
       fy="211.088"
       fx="1037.22"
       cy="211.088"
       cx="1037.22"
       gradientUnits="userSpaceOnUse"
       id="radialGradient3416"
       xlink:href="#defitem14"
       inkscape:collect="always" />
    <linearGradient
       x1="342.64999"
       y1="732.12903"
       x2="379.241"
       y2="686.83002"
       id="defitem13"
       gradientUnits="userSpaceOnUse">
      <stop
         style="stop-color:#ffffff;stop-opacity:1.0000000;"
         offset="0.0000000"
         id="stop44" />
      <stop
         style="stop-color:#989898;stop-opacity:1.0000000;"
         offset="1.0000000"
         id="stop45" />
    </linearGradient>
    <linearGradient
       y2="686.83002"
       x2="379.241"
       y1="732.12903"
       x1="342.64999"
       gradientUnits="userSpaceOnUse"
       id="linearGradient3414"
       xlink:href="#defitem13"
       inkscape:collect="always" />
    <radialGradient
       cx="632.78101"
       cy="484.409"
       r="540.27899"
       fx="632.78101"
       fy="484.409"
       id="defitem12"
       gradientUnits="userSpaceOnUse">
      <stop
         style="stop-color:#ffffff;stop-opacity:1.0000000;"
         offset="0.0000000"
         id="stop41" />
      <stop
         style="stop-color:#ededed;stop-opacity:1.0000000;"
         offset="1.0000000"
         id="stop42" />
    </radialGradient>
    <radialGradient
       r="540.27899"
       fy="484.409"
       fx="632.78101"
       cy="484.409"
       cx="632.78101"
       gradientUnits="userSpaceOnUse"
       id="radialGradient3412"
       xlink:href="#defitem12"
       inkscape:collect="always" />
    <inkscape:perspective
       id="perspective3148"
       inkscape:persp3d-origin="31.999999 : 21.333333 : 1"
       inkscape:vp_z="63.999998 : 32 : 1"
       inkscape:vp_y="0 : 1000 : 0"
       inkscape:vp_x="0 : 32 : 1"
       sodipodi:type="inkscape:persp3d" />
    <linearGradient
       id="linearGradient3682">
      <stop
         id="stop3684"
         offset="0"
         style="stop-color:#ff6d0f;stop-opacity:1;" />
      <stop
         id="stop3686"
         offset="1"
         style="stop-color:#ff1000;stop-opacity:1;" />
    </linearGradient>
    <linearGradient
       id="linearGradient3864">
      <stop
         style="stop-color:#71b2f8;stop-opacity:1;"
         offset="0"
         id="stop3866" />
      <stop
         style="stop-color:#002795;stop-opacity:1;"
         offset="1"
         id="stop3868" />
    </linearGradient>
  </defs>
  <sodipodi:namedview
     inkscape:window-height="744"
     inkscape:window-width="1366"
     inkscape:pageshadow="2"
     inkscape:pageopacity="0.0"
     guidetolerance="10.0"
     gridtolerance="10.0"
     objecttolerance="10.0"
     borderopacity="1.0"
     bordercolor="#666666"
     pagecolor="#ffffff"
     id="base"
     inkscape:window-x="0"
     inkscape:window-y="24"
     inkscape:current-layer="svg2"
     inkscape:document-units="mm"
     showgrid="false"
     inkscape:window-maximized="1"
     inkscape:zoom="0.26751313"
     inkscape:cx="568.88299"
     inkscape:cy="67.891954" />
  <g
     id="g4"
     style="fill:none;stroke:#000000;stroke-width:0.34999999;stroke-linecap:butt;stroke-linejoin:miter"
     transform="matrix(1.1075804,0,0,1.1075804,-13.938476,-201.37617)" />
  <g
     id="g452"
     style="fill:none;stroke:#000000;stroke-width:0.13;stroke-linecap:butt;stroke-linejoin:miter"
     transform="matrix(1.1075804,0,0,1.1075804,-13.938476,-201.37617)" />
  <g
     id="Ortho_-1_-1"
     transform="matrix(0.05542611,0.09600082,-0.09600082,0.05542611,137.98894,83.273115)">
    <path
       id="path561-9"
       d="M -586.24392,263.72854 36.009874,-95.529454"
       inkscape:connector-curvature="0"
       style="fill:none;stroke:#862525;stroke-width:19.98300934;stroke-linecap:round;stroke-linejoin:miter;stroke-miterlimit:4;stroke-dasharray:none;stroke-dashoffset:0;stroke-opacity:1" />
    <path
       id="path561-93"
       d="M -586.40946,433.95644 35.844341,74.698455"
       inkscape:connector-curvature="0"
       style="fill:none;fill-opacity:0.74213837;stroke:#862525;stroke-width:19.98300934;stroke-linecap:round;stroke-linejoin:miter;stroke-miterlimit:4;stroke-dasharray:none;stroke-dashoffset:0;stroke-opacity:1" />
    <path
       id="path571-0"
       d="m 35.844341,24.717455 -79.501534,-44.29688"
       inkscape:connector-curvature="0"
       style="fill:none;fill-opacity:0.74213837;stroke:#862525;stroke-width:19.98300934;stroke-linecap:round;stroke-linejoin:miter;stroke-miterlimit:4;stroke-dasharray:none;stroke-dashoffset:0;stroke-opacity:1"
       sodipodi:nodetypes="cc" />
    <path
       id="path561-6"
       d="M -585.9189,92.291289 36.334898,-266.96673"
       inkscape:connector-curvature="0"
       style="fill:none;stroke:#862525;stroke-width:19.98300934;stroke-linecap:round;stroke-linejoin:miter;stroke-miterlimit:4;stroke-dasharray:none;stroke-dashoffset:0;stroke-opacity:1" />
    <path
       id="path561-7"
       d="M -586.38206,606.613 35.871725,247.35499"
       inkscape:connector-curvature="0"
       style="fill:none;stroke:#862525;stroke-width:19.98300934;stroke-linecap:round;stroke-linejoin:miter;stroke-miterlimit:4;stroke-dasharray:none;stroke-dashoffset:0;stroke-opacity:1" />
    <g
       transform="scale(1,-1)"
       id="g483"
       style="fill:none;stroke:#000000;stroke-width:12.5;stroke-linecap:butt;stroke-linejoin:miter;stroke-dasharray:0.2, 0.1">
      <path
         id="path485"
         d="M 88.3883,357.217 -618.718,-51.031"
         inkscape:connector-curvature="0"
         style="stroke-width:13.74803599;stroke-linecap:round;stroke-miterlimit:4;stroke-dasharray:54.99214389,27.49607195;stroke-dashoffset:0" />
      <path
         id="path487"
         d="M -795.495,51.031 -618.718,-51.031"
         inkscape:connector-curvature="0"
         style="stroke-width:13.74803573;stroke-linecap:round;stroke-miterlimit:4;stroke-dasharray:41.24410719,41.24410719;stroke-dashoffset:0" />
      <path
         id="path489"
         d="m -618.718,-51.031 0,-816.497"
         inkscape:connector-curvature="0"
         style="stroke-width:13.74803573;stroke-linecap:round;stroke-miterlimit:4;stroke-dasharray:41.24410719,41.24410719;stroke-dashoffset:0" />
    </g>
    <g
       transform="scale(1,-1)"
       id="g551"
       style="fill:none;stroke:#000000;stroke-width:12.5;stroke-linecap:butt;stroke-linejoin:miter;stroke-dasharray:0.02, 0.1">
      <path
         id="path553"
         d="M -754.89851,-718.80137 -652.003,-778.208"
         inkscape:connector-curvature="0"
         style="stroke:#862525;stroke-width:19.98300934;stroke-linecap:round;stroke-miterlimit:4;stroke-dasharray:none;stroke-dashoffset:0;stroke-opacity:1"
         sodipodi:nodetypes="cc" />
      <path
         d="m -652.003,-778.208 c 1.192,-0.689 2.549,-1.405 4.165,-2.15 1.621,-0.746 3.501,-1.521 5.861,-2.315 1.381,-0.463 2.931,-0.93 4.745,-1.39 1.817,-0.459 3.898,-0.912 6.416,-1.311 1.594,-0.25 3.363,-0.479 5.347,-0.649 1.976,-0.17 4.168,-0.28 6.411,-0.288 2.179,-0.011 4.345,0.075 6.314,0.225 1.977,0.149 3.756,0.361 5.359,0.596 2.518,0.372 4.608,0.803 6.434,1.242 1.824,0.442 3.383,0.892 4.775,1.34 2.584,0.835 4.605,1.654 6.335,2.439 1.724,0.786 3.156,1.538 4.407,2.261"
         id="path557"
         inkscape:connector-curvature="0"
         style="stroke:#862525;stroke-width:19.98300934;stroke-linecap:round;stroke-miterlimit:4;stroke-dasharray:none;stroke-dashoffset:0;stroke-opacity:1" />
      <path
         id="path561"
         d="M -585.434,-778.208 36.8198,-418.95"
         inkscape:connector-curvature="0"
         style="stroke:#862525;stroke-width:19.98300934;stroke-linecap:round;stroke-miterlimit:4;stroke-dasharray:none;stroke-dashoffset:0;stroke-opacity:1" />
      <path
         d="m 36.8198,-418.95 c 3.2446,1.872 6.0466,4.006 8.3382,6.283 2.6515,2.632 4.6215,5.442 5.9742,8.284 1.5765,3.318 2.3413,6.681 2.4,10.036 0.0529,3.389 -0.613,6.786 -2.0942,10.144 -1.281,2.899 -3.1915,5.772 -5.8076,8.473 -2.3763,2.456 -5.3393,4.758 -8.8106,6.761"
         id="path567"
         inkscape:connector-curvature="0"
         style="stroke:#862525;stroke-width:19.98300934;stroke-linecap:round;stroke-miterlimit:4;stroke-dasharray:none;stroke-dashoffset:0;stroke-opacity:1" />
      <path
         id="path571"
         d="m 36.8198,-368.969 -78.660358,45.75386"
         inkscape:connector-curvature="0"
         style="stroke:#862525;stroke-width:19.98300934;stroke-linecap:round;stroke-miterlimit:4;stroke-dasharray:none;stroke-dashoffset:0;stroke-opacity:1"
         sodipodi:nodetypes="cc" />
      <path
         d="m -652.003,-435.28 c 1.192,-0.688 2.549,-1.404 4.165,-2.15 1.621,-0.745 3.501,-1.521 5.861,-2.314 1.381,-0.463 2.931,-0.93 4.745,-1.391 1.817,-0.459 3.898,-0.911 6.416,-1.31 1.594,-0.25 3.363,-0.48 5.347,-0.65 1.976,-0.17 4.168,-0.28 6.411,-0.288 2.179,-0.011 4.345,0.076 6.314,0.225 1.977,0.15 3.756,0.362 5.359,0.596 2.518,0.373 4.608,0.803 6.434,1.243 1.824,0.441 3.383,0.892 4.775,1.34 2.584,0.835 4.605,1.654 6.335,2.439 1.724,0.785 3.156,1.537 4.407,2.26"
         id="path601"
         inkscape:connector-curvature="0" />
      <path
         d="m -652.003,-263.815 c 1.192,-0.689 2.549,-1.405 4.165,-2.15 1.621,-0.746 3.501,-1.521 5.861,-2.315 1.381,-0.463 2.931,-0.93 4.745,-1.39 1.817,-0.459 3.898,-0.912 6.416,-1.311 1.594,-0.25 3.363,-0.479 5.347,-0.649 1.976,-0.17 4.168,-0.281 6.411,-0.289 2.179,-0.011 4.345,0.076 6.314,0.226 1.977,0.149 3.756,0.361 5.359,0.596 2.518,0.372 4.608,0.802 6.434,1.242 1.824,0.441 3.383,0.892 4.775,1.34 2.584,0.835 4.605,1.654 6.335,2.439 1.724,0.786 3.156,1.538 4.407,2.261"
         id="path621"
         inkscape:connector-curvature="0" />
    </g>
    <path
       style="fill:#0088aa;fill-opacity:0.74213839;fill-rule:evenodd;stroke:#000000;stroke-width:2.3518517px;stroke-linecap:butt;stroke-linejoin:miter;stroke-opacity:1"
       d="M -781.45893,767.22941 -620.21817,859.5611 81.491758,459.85025 -89.976187,361.88711 Z"
       id="path5114"
       inkscape:connector-curvature="0"
       sodipodi:nodetypes="ccccc" />
    <g
       transform="scale(1,-1)"
       id="g655"
       style="fill:none;stroke:#000000;stroke-width:12.5;stroke-linecap:butt;stroke-linejoin:miter">
      <path
         id="path657"
         d="M 88.3883,-459.279 -618.718,-867.528"
         inkscape:connector-curvature="0"
         style="stroke-width:18.49427605;stroke-linecap:round;stroke-miterlimit:4;stroke-dasharray:none;stroke-dashoffset:0" />
      <path
         id="path659"
         d="M -88.3883,-357.217 -795.495,-765.466"
         inkscape:connector-curvature="0"
         style="stroke-width:18.49427605;stroke-miterlimit:4;stroke-dasharray:none;stroke-dashoffset:0" />
      <path
         id="path661"
         d="M 88.3883,-459.279 -88.3883,-357.217"
         inkscape:connector-curvature="0"
         style="stroke-width:18.49427605;stroke-linecap:round;stroke-miterlimit:4;stroke-dasharray:none;stroke-dashoffset:0" />
      <path
         id="path663"
         d="m -618.718,-867.528 -176.777,102.062"
         inkscape:connector-curvature="0"
         style="stroke-width:18.49427605;stroke-linecap:round;stroke-miterlimit:4;stroke-dasharray:none;stroke-dashoffset:0" />
      <path
         id="path665"
         d="M -88.3883,459.279 -795.495,51.031"
         inkscape:connector-curvature="0"
         style="stroke-width:18.49427605;stroke-linecap:round;stroke-miterlimit:4;stroke-dasharray:none;stroke-dashoffset:0" />
      <path
         id="7"
         d="m -795.495,-765.466 c 0,272.16567 0,544.33133 0,816.497"
         inkscape:connector-curvature="0"
         style="stroke-width:18.49427605;stroke-linecap:round;stroke-miterlimit:4;stroke-dasharray:none;stroke-dashoffset:0"
         sodipodi:nodetypes="cc" />
      <path
         id="path670"
         d="M -88.3883,459.279 88.3883,357.217"
         inkscape:connector-curvature="0"
         style="stroke-width:18.49427605;stroke-linecap:round;stroke-miterlimit:4;stroke-dasharray:none;stroke-dashoffset:0" />
      <path
         id="path673"
         d="m 88.3883,357.217 0,-816.496"
         inkscape:connector-curvature="0"
         style="stroke-width:18.49427605;stroke-linecap:round;stroke-miterlimit:4;stroke-dasharray:none;stroke-dashoffset:0" />
      <path
         id="path667"
         d="m -88.3883,-357.217 0,816.496"
         inkscape:connector-curvature="0"
         style="stroke-width:18.49427605;stroke-linecap:round;stroke-miterlimit:4;stroke-dasharray:none;stroke-dashoffset:0" />
    </g>
    <path
       id="path553-3"
       d="m -752.93257,548.88879 99.98151,57.72421"
       inkscape:connector-curvature="0"
       style="fill:none;stroke:#862525;stroke-width:19.98300934;stroke-linecap:round;stroke-linejoin:miter;stroke-miterlimit:4;stroke-dasharray:none;stroke-dashoffset:0;stroke-opacity:1"
       sodipodi:nodetypes="cc" />
    <path
       d="m -652.95106,606.613 c 1.192,0.689 2.549,1.405 4.165,2.15 1.621,0.746 3.501,1.521 5.861,2.315 1.381,0.463 2.931,0.93 4.745,1.39 1.817,0.459 3.898,0.912 6.416,1.311 1.594,0.25 3.363,0.479 5.347,0.649 1.976,0.17 4.168,0.28 6.411,0.288 2.179,0.011 4.345,-0.075 6.314,-0.225 1.977,-0.149 3.756,-0.361 5.359,-0.596 2.518,-0.372 4.608,-0.803 6.434,-1.242 1.824,-0.442 3.383,-0.892 4.775,-1.34 2.584,-0.835 4.605,-1.654 6.335,-2.439 1.724,-0.786 3.156,-1.538 4.407,-2.261"
       id="path557-6"
       inkscape:connector-curvature="0"
       style="fill:none;stroke:#862525;stroke-width:19.98300934;stroke-linecap:round;stroke-linejoin:miter;stroke-miterlimit:4;stroke-dasharray:none;stroke-dashoffset:0;stroke-opacity:1" />
    <path
       d="m 35.871725,247.35499 c 3.2446,-1.87201 6.0466,-4.00599 8.3382,-6.28301 2.6515,-2.63199 4.6215,-5.442 5.9742,-8.28399 1.5765,-3.31799 2.3413,-6.681 2.4,-10.03601 0.053,-3.389 -0.613,-6.78599 -2.0942,-10.14399 -1.281,-2.899 -3.1915,-5.772 -5.8076,-8.47301 -2.3763,-2.45601 -5.3393,-4.75799 -8.8106,-6.76099"
       id="path567-5"
       inkscape:connector-curvature="0"
       style="fill:none;stroke:#862525;stroke-width:19.98300934;stroke-linecap:round;stroke-linejoin:miter;stroke-miterlimit:4;stroke-dasharray:none;stroke-dashoffset:0;stroke-opacity:1" />
    <path
       id="path571-3"
       d="M 35.871725,197.37399 -42.788611,151.62012"
       inkscape:connector-curvature="0"
       style="fill:none;stroke:#862525;stroke-width:19.98300934;stroke-linecap:round;stroke-linejoin:miter;stroke-miterlimit:4;stroke-dasharray:none;stroke-dashoffset:0;stroke-opacity:1"
       sodipodi:nodetypes="cc" />
    <path
       id="path553-5"
       d="m -746.12527,207.91209 93.31235,55.81645"
       inkscape:connector-curvature="0"
       style="fill:none;stroke:#862525;stroke-width:19.98300934;stroke-linecap:round;stroke-linejoin:miter;stroke-miterlimit:4;stroke-dasharray:none;stroke-dashoffset:0;stroke-opacity:1"
       sodipodi:nodetypes="cc" />
    <path
       d="m -652.81292,263.72854 c 1.192,0.689 2.549,1.405 4.165,2.15 1.621,0.746 3.501,1.521 5.861,2.315 1.381,0.463 2.931,0.93 4.745,1.39 1.817,0.459 3.898,0.912 6.416,1.311 1.594,0.25 3.363,0.479 5.347,0.649 1.976,0.17 4.168,0.28 6.411,0.288 2.179,0.011 4.345,-0.075 6.314,-0.225 1.977,-0.149 3.756,-0.361 5.359,-0.596 2.518,-0.372 4.608,-0.803 6.434,-1.242 1.824,-0.442 3.383,-0.892 4.775,-1.34 2.584,-0.835 4.605,-1.654 6.335,-2.439 1.724,-0.786 3.156,-1.538 4.407,-2.261"
       id="path557-62"
       inkscape:connector-curvature="0"
       style="fill:none;stroke:#862525;stroke-width:19.98300934;stroke-linecap:round;stroke-linejoin:miter;stroke-miterlimit:4;stroke-dasharray:none;stroke-dashoffset:0;stroke-opacity:1" />
    <path
       d="m 36.009874,-95.529454 c 3.2446,-1.872009 6.0466,-4.005989 8.3382,-6.283006 2.6515,-2.63199 4.6215,-5.442 5.9742,-8.28399 1.5765,-3.31799 2.3413,-6.681 2.4,-10.03601 0.053,-3.389 -0.613,-6.78599 -2.0942,-10.14399 -1.281,-2.899 -3.1915,-5.772 -5.8076,-8.47301 -2.3763,-2.45601 -5.3393,-4.75799 -8.8106,-6.76099"
       id="path567-1"
       inkscape:connector-curvature="0"
       style="fill:none;stroke:#862525;stroke-width:19.98300934;stroke-linecap:round;stroke-linejoin:miter;stroke-miterlimit:4;stroke-dasharray:none;stroke-dashoffset:0;stroke-opacity:1" />
    <path
       id="path571-2"
       d="m 36.009874,-145.51045 -76.362148,-46.36967"
       inkscape:connector-curvature="0"
       style="fill:none;stroke:#862525;stroke-width:19.98300934;stroke-linecap:round;stroke-linejoin:miter;stroke-miterlimit:4;stroke-dasharray:none;stroke-dashoffset:0;stroke-opacity:1"
       sodipodi:nodetypes="cc" />
    <path
       id="path553-7"
       d="m -748.589,378.75579 95.61054,55.20065"
       inkscape:connector-curvature="0"
       style="fill:none;fill-opacity:0.74213837;stroke:#862525;stroke-width:19.98300934;stroke-linecap:round;stroke-linejoin:miter;stroke-miterlimit:4;stroke-dasharray:none;stroke-dashoffset:0;stroke-opacity:1"
       sodipodi:nodetypes="cc" />
    <path
       d="m -652.97846,433.95644 c 1.192,0.689 2.549,1.405 4.165,2.15 1.621,0.746 3.501,1.521 5.861,2.315 1.381,0.463 2.931,0.93 4.745,1.39 1.817,0.459 3.898,0.912 6.416,1.311 1.594,0.25 3.363,0.479 5.347,0.649 1.976,0.17 4.168,0.28 6.411,0.288 2.179,0.011 4.345,-0.075 6.314,-0.225 1.977,-0.149 3.756,-0.361 5.359,-0.596 2.518,-0.372 4.608,-0.803 6.434,-1.242 1.824,-0.442 3.383,-0.892 4.775,-1.34 2.584,-0.835 4.605,-1.654 6.335,-2.439 1.724,-0.786 3.156,-1.538 4.407,-2.261"
       id="path557-0"
       inkscape:connector-curvature="0"
       style="fill:none;fill-opacity:0.74213837;stroke:#862525;stroke-width:19.98300934;stroke-linecap:round;stroke-linejoin:miter;stroke-miterlimit:4;stroke-dasharray:none;stroke-dashoffset:0;stroke-opacity:1" />
    <path
       d="m 35.844341,74.698455 c 3.2446,-1.87201 6.0466,-4.00599 8.3382,-6.28301 2.6515,-2.63199 4.6215,-5.442 5.9742,-8.28399 1.5765,-3.31799 2.3413,-6.681 2.4,-10.03601 0.053,-3.389 -0.613,-6.78599 -2.0942,-10.14399 -1.281,-2.899 -3.1915,-5.772 -5.8076,-8.47301 -2.3763,-2.45601 -5.3393,-4.75799 -8.8106,-6.76099"
       id="path567-6"
       inkscape:connector-curvature="0"
       style="fill:none;fill-opacity:0.74213837;stroke:#862525;stroke-width:19.98300934;stroke-linecap:round;stroke-linejoin:miter;stroke-miterlimit:4;stroke-dasharray:none;stroke-dashoffset:0;stroke-opacity:1" />
    <path
       id="path553-6"
       d="m -745.18446,38.772996 92.69656,53.518293"
       inkscape:connector-curvature="0"
       style="fill:none;stroke:#862525;stroke-width:19.98300934;stroke-linecap:round;stroke-linejoin:miter;stroke-miterlimit:4;stroke-dasharray:none;stroke-dashoffset:0;stroke-opacity:1"
       sodipodi:nodetypes="cc" />
    <path
       d="m -652.4879,92.291289 c 1.192,0.689 2.549,1.405 4.165,2.15 1.621,0.746 3.501,1.521 5.861,2.315 1.381,0.463 2.931,0.93 4.745,1.39 1.817,0.459 3.898,0.912 6.416,1.311 1.594,0.25 3.363,0.478997 5.347,0.649001 1.976,0.17 4.168,0.28 6.411,0.288 2.179,0.011 4.345,-0.075 6.314,-0.225 1.977,-0.149 3.756,-0.361004 5.359,-0.596001 2.518,-0.372 4.608,-0.803 6.434,-1.242 1.824,-0.442 3.383,-0.892 4.775,-1.34 2.584,-0.835 4.605,-1.654 6.335,-2.439 1.724,-0.786 3.156,-1.538 4.407,-2.261"
       id="path557-2"
       inkscape:connector-curvature="0"
       style="fill:none;stroke:#862525;stroke-width:19.98300934;stroke-linecap:round;stroke-linejoin:miter;stroke-miterlimit:4;stroke-dasharray:none;stroke-dashoffset:0;stroke-opacity:1" />
    <path
       d="m 36.334898,-266.96673 c 3.2446,-1.87201 6.0466,-4.00599 8.3382,-6.28301 2.6515,-2.63199 4.6215,-5.442 5.9742,-8.28399 1.5765,-3.31799 2.3413,-6.681 2.4,-10.03601 0.053,-3.389 -0.613,-6.78599 -2.0942,-10.14399 -1.281,-2.899 -3.1915,-5.772 -5.8076,-8.47301 -2.3763,-2.45601 -5.3393,-4.75799 -8.8106,-6.76099"
       id="path567-18"
       inkscape:connector-curvature="0"
       style="fill:none;stroke:#862525;stroke-width:19.98300934;stroke-linecap:round;stroke-linejoin:miter;stroke-miterlimit:4;stroke-dasharray:none;stroke-dashoffset:0;stroke-opacity:1" />
    <path
       id="path571-7"
       d="m 36.334898,-316.94773 -85.9453,-49.95985"
       inkscape:connector-curvature="0"
       style="fill:none;stroke:#862525;stroke-width:19.98300934;stroke-linecap:round;stroke-linejoin:miter;stroke-miterlimit:4;stroke-dasharray:none;stroke-dashoffset:0;stroke-opacity:1"
       sodipodi:nodetypes="cc" />
    <path
       style="opacity:0.71199999;fill:#483737;fill-opacity:0;stroke:none;stroke-width:3.54330707;stroke-linecap:round;stroke-linejoin:round;stroke-miterlimit:4;stroke-dasharray:10.62992126, 10.62992126;stroke-dashoffset:0;stroke-opacity:1"
       d="M 426.43879,536.60277 C 314.95119,472.26971 297.15214,461.7924 294.40712,458.88311 l -3.17273,-3.3626 5.48558,-3.13639 c 4.44269,-2.54012 5.48559,-3.43346 5.48559,-4.69894 0,-0.94968 -0.44383,-1.64802 -1.13157,-1.78047 -1.09182,-0.21026 -10.34538,4.74485 -11.16556,5.97896 -0.22136,0.33306 -0.96477,-0.68231 -1.65204,-2.25638 -1.11973,-2.56455 -1.27041,-4.97346 -1.45003,-23.18201 -0.11025,-11.17603 -0.0447,-20.32006 0.14563,-20.32006 0.19034,0 9.44253,5.24544 20.56041,11.65654 14.2434,8.21342 20.00734,11.86351 19.51361,12.35724 -1.05133,1.05134 -0.84344,3.06634 0.36418,3.52975 0.58568,0.22475 1.87231,-0.0683 2.85917,-0.65128 l 1.79429,-1.05991 111.79224,64.5429 111.79224,64.54291 0,24.96726 c 0,13.73199 -0.0743,24.96319 -0.1652,24.95823 -0.0909,-0.005 -58.15173,-33.46971 -129.02414,-74.36609 z M 315.81874,441.40041 c 4.29482,-2.47725 5.25358,-3.31735 5.09053,-4.4605 -0.11786,-0.82631 -0.74713,-1.47742 -1.52252,-1.57537 -1.97605,-0.24962 -11.56426,5.56907 -11.56426,7.01788 0,2.9287 1.54523,2.73893 7.99625,-0.98201 z"
       id="path5096"
       inkscape:connector-curvature="0"
       transform="matrix(1.1759259,-2.0367634,2.0367634,1.1759259,-1884.1755,837.09102)" />
    <path
       style="opacity:0.71199999;fill:#483737;fill-opacity:0;stroke:none;stroke-width:3.54330707;stroke-linecap:round;stroke-linejoin:round;stroke-miterlimit:4;stroke-dasharray:10.62992126, 10.62992126;stroke-dashoffset:0;stroke-opacity:1"
       d="M 426.43879,536.60277 C 314.95119,472.26971 297.15214,461.7924 294.40712,458.88311 l -3.17273,-3.3626 5.48558,-3.13639 c 4.44269,-2.54012 5.48559,-3.43346 5.48559,-4.69894 0,-0.94968 -0.44383,-1.64802 -1.13157,-1.78047 -1.09182,-0.21026 -10.34538,4.74485 -11.16556,5.97896 -0.22136,0.33306 -0.96477,-0.68231 -1.65204,-2.25638 -1.11973,-2.56455 -1.27041,-4.97346 -1.45003,-23.18201 -0.11025,-11.17603 -0.0447,-20.32006 0.14563,-20.32006 0.19034,0 9.44253,5.24544 20.56041,11.65654 14.2434,8.21342 20.00734,11.86351 19.51361,12.35724 -1.05133,1.05134 -0.84344,3.06634 0.36418,3.52975 0.58568,0.22475 1.87231,-0.0683 2.85917,-0.65128 l 1.79429,-1.05991 111.79224,64.5429 111.79224,64.54291 0,24.96726 c 0,13.73199 -0.0743,24.96319 -0.1652,24.95823 -0.0909,-0.005 -58.15173,-33.46971 -129.02414,-74.36609 z M 315.81874,441.40041 c 4.29482,-2.47725 5.25358,-3.31735 5.09053,-4.4605 -0.11786,-0.82631 -0.74713,-1.47742 -1.52252,-1.57537 -1.97605,-0.24962 -11.56426,5.56907 -11.56426,7.01788 0,2.9287 1.54523,2.73893 7.99625,-0.98201 z"
       id="path5098"
       inkscape:connector-curvature="0"
       transform="matrix(1.1759259,-2.0367634,2.0367634,1.1759259,-1884.1755,837.09102)" />
    <path
       style="opacity:0.71199999;fill:#483737;fill-opacity:0;stroke:none;stroke-width:3.54330707;stroke-linecap:round;stroke-linejoin:round;stroke-miterlimit:4;stroke-dasharray:10.62992126, 10.62992126;stroke-dashoffset:0;stroke-opacity:1"
       d="M 426.43879,536.60277 C 314.95119,472.26971 297.15214,461.7924 294.40712,458.88311 l -3.17273,-3.3626 5.48558,-3.13639 c 4.44269,-2.54012 5.48559,-3.43346 5.48559,-4.69894 0,-0.94968 -0.44383,-1.64802 -1.13157,-1.78047 -1.09182,-0.21026 -10.34538,4.74485 -11.16556,5.97896 -0.22136,0.33306 -0.96477,-0.68231 -1.65204,-2.25638 -1.11973,-2.56455 -1.27041,-4.97346 -1.45003,-23.18201 -0.11025,-11.17603 -0.0447,-20.32006 0.14563,-20.32006 0.19034,0 9.44253,5.24544 20.56041,11.65654 14.2434,8.21342 20.00734,11.86351 19.51361,12.35724 -1.05133,1.05134 -0.84344,3.06634 0.36418,3.52975 0.58568,0.22475 1.87231,-0.0683 2.85917,-0.65128 l 1.79429,-1.05991 111.79224,64.5429 111.79224,64.54291 0,24.96726 c 0,13.73199 -0.0743,24.96319 -0.1652,24.95823 -0.0909,-0.005 -58.15173,-33.46971 -129.02414,-74.36609 z M 315.81874,441.40041 c 4.29482,-2.47725 5.25358,-3.31735 5.09053,-4.4605 -0.11786,-0.82631 -0.74713,-1.47742 -1.52252,-1.57537 -1.97605,-0.24962 -11.56426,5.56907 -11.56426,7.01788 0,2.9287 1.54523,2.73893 7.99625,-0.98201 z"
       id="path5100"
       inkscape:connector-curvature="0"
       transform="matrix(1.1759259,-2.0367634,2.0367634,1.1759259,-1884.1755,837.09102)" />
    <path
       style="opacity:0.71199999;fill:#483737;fill-opacity:0;stroke:none;stroke-width:3.54330707;stroke-linecap:round;stroke-linejoin:round;stroke-miterlimit:4;stroke-dasharray:10.62992126, 10.62992126;stroke-dashoffset:0;stroke-opacity:1"
       d="M 426.43879,536.60277 C 314.95119,472.26971 297.15214,461.7924 294.40712,458.88311 l -3.17273,-3.3626 5.48558,-3.13639 c 4.44269,-2.54012 5.48559,-3.43346 5.48559,-4.69894 0,-0.94968 -0.44383,-1.64802 -1.13157,-1.78047 -1.09182,-0.21026 -10.34538,4.74485 -11.16556,5.97896 -0.22136,0.33306 -0.96477,-0.68231 -1.65204,-2.25638 -1.11973,-2.56455 -1.27041,-4.97346 -1.45003,-23.18201 -0.11025,-11.17603 -0.0447,-20.32006 0.14563,-20.32006 0.19034,0 9.44253,5.24544 20.56041,11.65654 14.2434,8.21342 20.00734,11.86351 19.51361,12.35724 -1.05133,1.05134 -0.84344,3.06634 0.36418,3.52975 0.58568,0.22475 1.87231,-0.0683 2.85917,-0.65128 l 1.79429,-1.05991 111.79224,64.5429 111.79224,64.54291 0,24.96726 c 0,13.73199 -0.0743,24.96319 -0.1652,24.95823 -0.0909,-0.005 -58.15173,-33.46971 -129.02414,-74.36609 z M 315.81874,441.40041 c 4.29482,-2.47725 5.25358,-3.31735 5.09053,-4.4605 -0.11786,-0.82631 -0.74713,-1.47742 -1.52252,-1.57537 -1.97605,-0.24962 -11.56426,5.56907 -11.56426,7.01788 0,2.9287 1.54523,2.73893 7.99625,-0.98201 z"
       id="path5102"
       inkscape:connector-curvature="0"
       transform="matrix(1.1759259,-2.0367634,2.0367634,1.1759259,-1884.1755,837.09102)" />
    <path
       style="opacity:0.71199999;fill:#483737;fill-opacity:0;stroke:none;stroke-width:3.54330707;stroke-linecap:round;stroke-linejoin:round;stroke-miterlimit:4;stroke-dasharray:10.62992126, 10.62992126;stroke-dashoffset:0;stroke-opacity:1"
       d="m 409.06723,556.31079 c -119.32805,-68.8937 -145.98981,-84.53314 -144.92225,-85.0095 1.79645,-0.80159 2.29363,-2.43438 1.10363,-3.62438 -0.79887,-0.79886 -1.31626,-0.84293 -2.66754,-0.22725 l -1.67645,0.76384 0,-38.71951 0,-38.71951 1.48683,0.94472 c 0.81776,0.5196 5.27826,3.11778 9.91223,5.77372 l 8.42539,4.829 0,20.92645 c 0,23.13223 0.28635,25.39546 4.13912,32.71456 4.65763,8.84809 -2.49632,4.42262 139.91856,86.55419 71.78104,41.39658 130.59252,75.32837 130.69219,75.40399 0.0997,0.0756 0.0997,5.24003 0,11.47646 l -0.18122,11.33897 -146.23049,-84.42575 z M 278.85559,462.73573 c 3.88423,-2.29411 4.84715,-3.17842 4.84715,-4.45144 0,-2.43059 -1.63312,-2.26208 -6.7678,0.69828 -5.32006,3.06724 -6.31016,4.02496 -5.72839,5.54103 0.65345,1.70285 2.44967,1.28301 7.64904,-1.78787 z"
       id="path5104"
       inkscape:connector-curvature="0"
       transform="matrix(1.1759259,-2.0367634,2.0367634,1.1759259,-1884.1755,837.09102)" />
  </g>
  <g
     inkscape:groupmode="layer"
     id="layer1"
     inkscape:label="rebar"
     style="display:none" />
</svg>
