<?xml version="1.0" encoding="UTF-8" standalone="no"?>
<!-- Created with Inkscape (http://www.inkscape.org/) -->

<svg
   xmlns:dc="http://purl.org/dc/elements/1.1/"
   xmlns:cc="http://creativecommons.org/ns#"
   xmlns:rdf="http://www.w3.org/1999/02/22-rdf-syntax-ns#"
   xmlns:svg="http://www.w3.org/2000/svg"
   xmlns="http://www.w3.org/2000/svg"
   xmlns:sodipodi="http://sodipodi.sourceforge.net/DTD/sodipodi-0.dtd"
   xmlns:inkscape="http://www.inkscape.org/namespaces/inkscape"
   width="125"
   height="124.99922"
   version="1.1"
   viewBox="0 0 33.073276 10.582934"
   id="svg560"
   sodipodi:docname="company_logo.svg"
   inkscape:version="0.92.5 (2060ec1f9f, 2020-04-08)">
  <sodipodi:namedview
     pagecolor="#ffffff"
     bordercolor="#666666"
     borderopacity="1"
     objecttolerance="10"
     gridtolerance="10"
     guidetolerance="10"
     inkscape:pageopacity="0"
     inkscape:pageshadow="2"
     inkscape:window-width="1920"
     inkscape:window-height="1024"
     id="namedview562"
     showgrid="false"
     inkscape:zoom="1"
     inkscape:cx="43.665988"
     inkscape:cy="31.407776"
     inkscape:window-x="0"
     inkscape:window-y="27"
     inkscape:window-maximized="1"
     inkscape:current-layer="g556" />
  <defs
     id="defs536">
    <linearGradient
       id="linearGradient954"
       x1="-146.74001"
       x2="-157.32001"
       y1="58.262001"
       y2="26.521"
       gradientTransform="matrix(6.9077,0,0,6.9077,-4100,1055.2)"
       gradientUnits="userSpaceOnUse">
      <stop
         stop-color="#204a87"
         offset="0"
         id="stop526" />
      <stop
         stop-color="#729fcf"
         offset="1"
         id="stop528" />
    </linearGradient>
    <linearGradient
       id="linearGradient956"
       x1="-206.7"
       x2="-211.39999"
       y1="68.842003"
       y2="7.7114"
       gradientTransform="matrix(6.843,0,0,6.843,-3961.1,1029.7)"
       gradientUnits="userSpaceOnUse">
      <stop
         stop-color="#a40000"
         offset="0"
         id="stop531" />
      <stop
         stop-color="#ef2929"
         offset="1"
         id="stop533" />
    </linearGradient>
  </defs>
  <metadata
     id="metadata538">
    <rdf:RDF>
      <cc:Work
         rdf:about="">
        <dc:format>image/svg+xml</dc:format>
        <dc:type
           rdf:resource="http://purl.org/dc/dcmitype/StillImage" />
        <dc:title />
      </cc:Work>
    </rdf:RDF>
  </metadata>
  <g
     transform="matrix(0.73278,0,0,0.73278,-283.01386,-85.352613)"
     id="g558"
     style="stroke-width:1.41340005">
    <g
       transform="matrix(0.85156,0,0,0.85156,56.981,19.2)"
       id="g556">
      <g
         transform="matrix(0.1098081,0,0,0.1098081,985.73663,-19.112378)"
         id="g554"
         style="stroke-width:16.0890007">
        <g
           id="g548"
           style="stroke-linecap:round;stroke-linejoin:round">
          <path
             d="m -5050.1,1219.6 -49.724,28.528 -21.957,-7.6191 -20.949,-53.543 -32.952,1.7338 -15.032,55.363 -21.037,10.073 -52.469,-22.952 -22.165,24.628 28.528,49.724 -7.7957,21.891 -53.539,20.952 1.9155,33.016 55.364,15.032 10.073,21.037 -23.129,52.405 24.628,22.162 49.724,-28.528 22.067,7.8625 20.772,53.472 33.196,-1.8546 14.856,-55.427 21.037,-10.073 52.581,23.192 22.162,-24.627 -28.529,-49.724 7.6833,-22.131 53.476,-20.776 -1.673,-33.128 -55.427,-14.856 -10.075,-21.037 23.019,-52.646 z m -74.47,81.539 10.207,5.9222 8.8412,8.0176 7.0818,9.5689 5.0925,10.638 3.0099,11.468 0.4885,11.755 -1.7029,11.747 -3.8738,11.156 -6.163,10.319 -7.7777,8.7324 -9.568,7.0783 -10.638,5.0926 -11.469,3.0099 -11.818,0.6685 -11.752,-1.703 -11.152,-3.8738 -10.32,-6.163 -8.6681,-7.9533 -7.1452,-9.3923 -5.0925,-10.638 -2.9191,-11.645 -0.6685,-11.819 1.7021,-11.748 3.8738,-11.155 6.0987,-10.143 7.842,-8.9081 9.568,-7.0783 10.638,-5.0925 11.646,-2.9191 11.754,-0.4885 11.748,1.7029 11.155,3.8739 z"
             id="path542"
             style="fill:url(#linearGradient954);fill-rule:evenodd;stroke:#000137"
             inkscape:connector-curvature="0" />
          <path
             d="m -5051.9,1239.1 -46.41,26.589 -34.992,-12.585 -20.377,-49.343 -9.8483,0.5142 -14.175,51.901 -34.159,15.579 -48.376,-21.028 -6.4767,7.416 26.714,46.926 -13.387,34.287 -48.826,19.471 0.5742,10.483 51.511,14.117 15.966,34.159 -21.314,48.319 7.1572,6.2178 45.893,-26.2 36.902,12.931 18.149,49.027 h 9.8662 l 14.344,-51.569 33.512,-16.744 50.547,21.63 6.0901,-6.5066 -26.716,-45.764 11.478,-35.926 50.192,-19.957 -0.3342,-10.326 -50.924,-13.053 -16.872,-34.548 21.341,-49.441 z"
             id="path544"
             inkscape:connector-curvature="0"
             style="fill:none;stroke:#729fcf" />
          <circle
             cx="-5150.3999"
             cy="1355.6"
             r="77.198997"
             id="circle546"
             style="fill:none;stroke:#729fcf;stroke-dashoffset:6" />
        </g>
        <path
           d="m -5447.9,1058.3 v 466.58 h 96.534 v -193.07 h 96.534 v -96.534 h -96.534 v -80.444 h 160.89 v -96.534 z"
           id="path550"
           style="fill:url(#linearGradient956);fill-rule:evenodd;stroke:#280000"
           inkscape:connector-curvature="0" />
        <path
           d="m -5431.8,1074.4 v 434.4 h 64.354 v -193.07 h 96.535 v -64.357 h -96.535 v -112.62 h 160.89 v -64.354 z"
           id="path552"
           inkscape:connector-curvature="0"
           style="fill:none;stroke:#ef2929" />
      </g>
    </g>
  </g>
</svg>
